<svg xmlns="http://www.w3.org/2000/svg" xmlns:xlink="http://www.w3.org/1999/xlink" width="500" zoomAndPan="magnify" viewBox="0 0 375 374.999991" height="500" preserveAspectRatio="xMidYMid meet" version="1.0"><defs><g/><clipPath id="d0382e36fc"><path d="M 137 144.597656 L 144 144.597656 L 144 149 L 137 149 Z M 137 144.597656 " clip-rule="nonzero"/></clipPath><clipPath id="c3c1056eb2"><path d="M 139.320312 171 L 159.769531 171 L 159.769531 187.324219 L 139.320312 187.324219 Z M 139.320312 171 " clip-rule="nonzero"/></clipPath><clipPath id="c54dd4ae59"><path d="M 112.519531 170.828125 L 132.835938 170.828125 L 132.835938 187.324219 L 112.519531 187.324219 Z M 112.519531 170.828125 " clip-rule="nonzero"/></clipPath></defs><g clip-path="url(#d0382e36fc)"><path fill="#000000" d="M 138.648438 146.445312 L 141.675781 147.832031 C 141.804688 147.796875 141.929688 147.757812 142.046875 147.722656 C 142.605469 147.082031 142.621094 146.257812 142.535156 145.667969 C 142.488281 145.363281 142.210938 145.226562 141.960938 145.226562 C 141.871094 145.226562 141.78125 145.246094 141.695312 145.277344 Z M 141.652344 148.460938 C 141.609375 148.460938 141.566406 148.453125 141.523438 148.433594 L 137.730469 146.699219 C 137.617188 146.644531 137.546875 146.53125 137.550781 146.410156 C 137.554688 146.285156 137.632812 146.175781 137.746094 146.132812 L 141.476562 144.707031 C 141.632812 144.644531 141.792969 144.617188 141.960938 144.617188 C 142.570312 144.617188 143.054688 145.011719 143.136719 145.578125 C 143.25 146.320312 143.214844 147.375 142.441406 148.203125 C 142.402344 148.242188 142.355469 148.269531 142.304688 148.285156 C 142.125 148.339844 141.929688 148.394531 141.734375 148.449219 C 141.707031 148.457031 141.679688 148.460938 141.652344 148.460938 " fill-opacity="1" fill-rule="nonzero"/></g><path fill="#000000" d="M 139.90625 177.25 L 140.019531 177.164062 C 140.222656 177.5 140.425781 177.835938 140.625 178.171875 Z M 140.496094 176.792969 L 140.585938 176.71875 C 140.644531 176.675781 140.730469 176.6875 140.769531 176.753906 C 141.070312 177.25 141.367188 177.75 141.65625 178.246094 C 141.6875 178.296875 141.675781 178.367188 141.625 178.402344 L 141.535156 178.472656 C 141.476562 178.519531 141.390625 178.503906 141.355469 178.441406 C 141.0625 177.945312 140.765625 177.449219 140.464844 176.953125 C 140.433594 176.898438 140.445312 176.832031 140.496094 176.792969 Z M 141.089844 176.335938 L 141.085938 176.328125 L 141.1875 176.25 C 141.246094 176.203125 141.332031 176.21875 141.371094 176.28125 C 141.429688 176.378906 141.488281 176.472656 141.542969 176.566406 L 142.089844 177.464844 C 142.148438 177.566406 142.210938 177.664062 142.269531 177.765625 C 142.300781 177.816406 142.289062 177.886719 142.238281 177.925781 L 142.210938 177.945312 C 142.152344 177.992188 142.066406 177.976562 142.027344 177.910156 C 141.722656 177.390625 141.410156 176.863281 141.089844 176.335938 Z M 142.027344 175.769531 C 142.316406 176.261719 142.613281 176.757812 142.914062 177.257812 C 142.949219 177.3125 142.933594 177.378906 142.886719 177.417969 L 142.824219 177.46875 C 142.765625 177.511719 142.679688 177.496094 142.640625 177.433594 C 142.597656 177.359375 142.550781 177.285156 142.507812 177.210938 L 141.960938 176.3125 C 141.890625 176.195312 141.816406 176.074219 141.746094 175.953125 C 141.710938 175.898438 141.726562 175.828125 141.773438 175.792969 L 141.84375 175.734375 C 141.902344 175.691406 141.988281 175.707031 142.027344 175.769531 Z M 142.621094 175.308594 C 142.917969 175.8125 143.210938 176.308594 143.5 176.800781 C 143.53125 176.855469 143.519531 176.921875 143.46875 176.960938 C 143.410156 177.007812 143.328125 176.992188 143.289062 176.925781 C 142.988281 176.429688 142.691406 175.929688 142.398438 175.4375 C 142.367188 175.386719 142.382812 175.316406 142.429688 175.277344 L 142.4375 175.273438 C 142.496094 175.226562 142.582031 175.242188 142.621094 175.308594 Z M 143.261719 174.796875 C 143.582031 175.277344 143.890625 175.765625 144.199219 176.25 C 144.230469 176.304688 144.21875 176.375 144.167969 176.414062 L 144.054688 176.503906 C 143.996094 176.550781 143.910156 176.535156 143.875 176.46875 C 143.582031 175.980469 143.289062 175.480469 142.992188 174.976562 C 142.960938 174.921875 142.972656 174.851562 143.023438 174.816406 L 143.082031 174.769531 C 143.136719 174.722656 143.222656 174.738281 143.261719 174.796875 Z M 143.929688 174.28125 C 144.222656 174.769531 144.519531 175.265625 144.820312 175.765625 C 144.851562 175.820312 144.839844 175.890625 144.792969 175.929688 L 144.753906 175.960938 C 144.695312 176.003906 144.609375 175.988281 144.570312 175.925781 C 144.265625 175.441406 143.957031 174.960938 143.636719 174.480469 C 143.601562 174.425781 143.613281 174.351562 143.664062 174.3125 L 143.75 174.246094 C 143.808594 174.199219 143.894531 174.214844 143.929688 174.28125 Z M 144.570312 173.777344 C 144.871094 174.273438 145.175781 174.761719 145.476562 175.253906 C 145.511719 175.304688 145.496094 175.375 145.449219 175.414062 L 145.375 175.46875 C 145.316406 175.515625 145.234375 175.5 145.195312 175.4375 C 144.894531 174.933594 144.597656 174.4375 144.304688 173.949219 C 144.273438 173.894531 144.285156 173.828125 144.335938 173.789062 L 144.390625 173.746094 C 144.449219 173.699219 144.53125 173.714844 144.570312 173.777344 Z M 145.234375 173.261719 C 145.527344 173.753906 145.824219 174.25 146.125 174.746094 C 146.15625 174.800781 146.144531 174.871094 146.09375 174.910156 L 146.03125 174.957031 C 145.972656 175.003906 145.890625 174.988281 145.851562 174.925781 C 145.546875 174.4375 145.246094 173.945312 144.945312 173.453125 C 144.910156 173.398438 144.925781 173.328125 144.972656 173.289062 L 145.050781 173.226562 C 145.109375 173.183594 145.195312 173.199219 145.234375 173.261719 Z M 145.929688 172.714844 C 146.234375 173.207031 146.535156 173.699219 146.839844 174.1875 C 146.871094 174.242188 146.859375 174.3125 146.808594 174.351562 L 146.679688 174.453125 C 146.621094 174.496094 146.535156 174.480469 146.496094 174.417969 C 146.199219 173.921875 145.902344 173.425781 145.605469 172.929688 C 145.574219 172.878906 145.585938 172.808594 145.636719 172.769531 L 145.75 172.683594 C 145.804688 172.636719 145.890625 172.652344 145.929688 172.714844 Z M 146.4375 172.144531 C 146.496094 172.097656 146.582031 172.113281 146.621094 172.175781 C 146.820312 172.511719 147.019531 172.84375 147.21875 173.175781 C 147.316406 173.339844 147.414062 173.5 147.511719 173.664062 C 147.542969 173.71875 147.53125 173.785156 147.480469 173.824219 L 147.394531 173.894531 C 147.335938 173.9375 147.25 173.925781 147.210938 173.863281 C 146.910156 173.375 146.605469 172.882812 146.304688 172.390625 C 146.269531 172.335938 146.28125 172.265625 146.332031 172.226562 Z M 147.074219 171.648438 C 147.132812 171.601562 147.21875 171.617188 147.253906 171.679688 C 147.570312 172.199219 147.882812 172.722656 148.195312 173.242188 L 148.207031 173.257812 L 148.066406 173.367188 C 148.007812 173.414062 147.921875 173.398438 147.882812 173.332031 C 147.800781 173.195312 147.71875 173.058594 147.640625 172.925781 C 147.425781 172.566406 147.210938 172.207031 146.992188 171.847656 C 146.960938 171.792969 146.972656 171.722656 147.023438 171.6875 Z M 147.71875 171.140625 C 147.777344 171.09375 147.863281 171.113281 147.902344 171.175781 C 148.160156 171.613281 148.425781 172.050781 148.714844 172.480469 L 148.816406 172.644531 C 148.847656 172.699219 148.835938 172.765625 148.785156 172.804688 L 148.703125 172.867188 C 148.644531 172.914062 148.5625 172.898438 148.523438 172.835938 C 148.226562 172.339844 147.925781 171.84375 147.628906 171.351562 C 147.597656 171.296875 147.609375 171.226562 147.660156 171.1875 Z M 148.394531 170.613281 C 148.453125 170.566406 148.539062 170.582031 148.578125 170.644531 C 148.597656 170.675781 148.617188 170.710938 148.636719 170.742188 C 148.914062 171.199219 149.195312 171.660156 149.476562 172.125 C 149.507812 172.179688 149.496094 172.25 149.449219 172.285156 L 149.371094 172.347656 C 149.3125 172.394531 149.226562 172.378906 149.1875 172.316406 L 149.128906 172.214844 C 148.824219 171.765625 148.542969 171.300781 148.273438 170.84375 C 148.242188 170.789062 148.257812 170.722656 148.304688 170.683594 Z M 149.183594 170.171875 C 149.476562 170.667969 149.773438 171.164062 150.070312 171.664062 C 150.101562 171.71875 150.089844 171.785156 150.039062 171.824219 L 150.03125 171.832031 C 149.972656 171.875 149.886719 171.859375 149.851562 171.796875 C 149.550781 171.300781 149.25 170.808594 148.949219 170.316406 C 148.960938 170.257812 148.96875 170.214844 148.980469 170.15625 L 149.003906 170.136719 C 149.0625 170.09375 149.148438 170.109375 149.183594 170.171875 Z M 149.902344 169.609375 C 150.195312 170.09375 150.492188 170.585938 150.792969 171.097656 C 150.824219 171.152344 150.8125 171.21875 150.761719 171.257812 L 150.625 171.367188 C 150.566406 171.414062 150.480469 171.394531 150.441406 171.332031 C 150.144531 170.835938 149.851562 170.335938 149.558594 169.839844 C 149.527344 169.789062 149.539062 169.71875 149.589844 169.679688 L 149.722656 169.578125 C 149.777344 169.53125 149.863281 169.546875 149.902344 169.609375 Z M 141.914062 180.316406 L 152.472656 172.058594 C 152.535156 172.011719 152.578125 171.9375 152.585938 171.855469 C 152.597656 171.777344 152.574219 171.695312 152.523438 171.628906 L 150.164062 168.609375 C 150.125 168.554688 150.046875 168.546875 149.992188 168.585938 L 139.289062 176.957031 C 139.191406 177.03125 139.152344 177.160156 139.179688 177.273438 C 139.191406 177.3125 139.210938 177.351562 139.238281 177.386719 L 141.484375 180.265625 C 141.535156 180.328125 141.605469 180.371094 141.6875 180.378906 C 141.769531 180.390625 141.847656 180.367188 141.914062 180.316406 " fill-opacity="1" fill-rule="nonzero"/><g clip-path="url(#c3c1056eb2)"><path fill="#000000" d="M 151.730469 172.671875 C 151.738281 172.644531 151.753906 172.621094 151.777344 172.601562 L 152.109375 172.34375 C 152.222656 172.253906 152.378906 172.363281 152.335938 172.5 C 150.90625 177.019531 149.65625 181.597656 148.445312 186.035156 C 148.414062 186.066406 148.378906 186.105469 148.347656 186.136719 C 148.21875 186.175781 148.09375 186.210938 147.964844 186.246094 C 147.855469 186.277344 147.757812 186.175781 147.785156 186.066406 C 149.164062 181.21875 150.457031 176.828125 151.730469 172.671875 Z M 153.167969 172.242188 L 153.390625 172.519531 C 153.417969 172.554688 153.429688 172.605469 153.414062 172.652344 C 152.179688 176.761719 150.871094 181.171875 149.59375 185.671875 C 149.578125 185.71875 149.542969 185.753906 149.5 185.769531 C 149.410156 185.800781 149.320312 185.828125 149.234375 185.859375 C 149.125 185.894531 149.019531 185.792969 149.046875 185.683594 C 150.25 181.28125 151.492188 176.753906 152.917969 172.289062 C 152.953125 172.175781 153.097656 172.152344 153.167969 172.242188 Z M 153.980469 173.257812 L 154.183594 173.515625 C 154.214844 173.550781 154.222656 173.601562 154.210938 173.644531 C 153.3125 176.703125 152.464844 179.773438 151.636719 182.773438 C 151.417969 183.558594 151.199219 184.355469 150.976562 185.15625 C 150.964844 185.199219 150.933594 185.234375 150.890625 185.25 C 150.730469 185.316406 150.570312 185.378906 150.40625 185.441406 C 150.296875 185.484375 150.183594 185.378906 150.21875 185.265625 C 151.394531 181.144531 152.589844 177.101562 153.730469 173.308594 C 153.761719 173.195312 153.910156 173.167969 153.980469 173.257812 Z M 154.78125 174.261719 L 155.066406 174.621094 C 155.097656 174.65625 155.105469 174.707031 155.09375 174.75 C 154.398438 177.179688 153.695312 179.601562 153 181.972656 C 152.746094 182.847656 152.488281 183.730469 152.230469 184.621094 C 152.21875 184.660156 152.191406 184.695312 152.152344 184.710938 C 152.039062 184.761719 151.925781 184.8125 151.8125 184.863281 C 151.699219 184.914062 151.582031 184.808594 151.613281 184.691406 C 151.78125 184.09375 151.945312 183.496094 152.109375 182.902344 C 152.886719 180.078125 153.6875 177.191406 154.527344 174.308594 C 154.558594 174.199219 154.707031 174.167969 154.78125 174.261719 Z M 155.664062 175.367188 L 155.839844 175.585938 C 155.867188 175.625 155.875 175.671875 155.863281 175.71875 C 155.753906 176.105469 155.644531 176.496094 155.535156 176.878906 C 154.972656 178.863281 154.390625 180.917969 153.796875 182.957031 C 153.699219 183.304688 153.597656 183.648438 153.5 183.996094 C 153.488281 184.035156 153.464844 184.070312 153.429688 184.085938 C 153.320312 184.144531 153.210938 184.199219 153.097656 184.253906 C 152.988281 184.3125 152.859375 184.207031 152.894531 184.085938 C 153.089844 183.421875 153.28125 182.765625 153.472656 182.113281 C 154.113281 179.910156 154.765625 177.671875 155.410156 175.417969 C 155.441406 175.304688 155.589844 175.277344 155.664062 175.367188 Z M 156.433594 176.335938 L 156.679688 176.644531 C 156.710938 176.679688 156.71875 176.726562 156.707031 176.769531 C 156.46875 177.71875 156.179688 178.644531 155.898438 179.542969 C 155.574219 180.585938 155.234375 181.667969 154.972656 182.777344 L 154.835938 183.253906 C 154.824219 183.289062 154.800781 183.320312 154.769531 183.339844 C 154.644531 183.414062 154.519531 183.488281 154.390625 183.558594 C 154.28125 183.625 154.144531 183.519531 154.179688 183.394531 C 154.210938 183.292969 154.238281 183.191406 154.265625 183.09375 C 154.863281 181.050781 155.445312 179 156.007812 177.011719 C 156.066406 176.804688 156.125 176.597656 156.183594 176.386719 C 156.214844 176.273438 156.363281 176.246094 156.433594 176.335938 Z M 157.285156 177.398438 L 157.484375 177.652344 C 157.515625 177.6875 157.523438 177.734375 157.511719 177.78125 C 157.1875 178.921875 156.863281 180.054688 156.546875 181.179688 C 156.433594 181.578125 156.316406 181.984375 156.203125 182.386719 C 156.191406 182.421875 156.171875 182.449219 156.144531 182.46875 C 155.910156 182.625 155.675781 182.78125 155.4375 182.929688 L 155.445312 182.902344 C 155.707031 181.796875 156.042969 180.722656 156.367188 179.6875 C 156.59375 178.960938 156.824219 178.214844 157.03125 177.453125 C 157.0625 177.339844 157.210938 177.308594 157.285156 177.398438 Z M 158.082031 178.398438 L 158.269531 178.632812 C 158.277344 178.679688 158.285156 178.71875 158.292969 178.765625 C 158.023438 179.664062 157.753906 180.566406 157.484375 181.472656 C 157.476562 181.5 157.457031 181.527344 157.433594 181.546875 C 157.34375 181.613281 157.253906 181.683594 157.164062 181.75 C 157.050781 181.832031 156.898438 181.726562 156.9375 181.59375 C 156.964844 181.5 156.988281 181.40625 157.015625 181.3125 C 157.285156 180.367188 157.554688 179.410156 157.828125 178.449219 C 157.859375 178.335938 158.007812 178.308594 158.082031 178.398438 Z M 148.058594 175.847656 C 146.828125 179.878906 145.90625 182.96875 144.890625 186.515625 C 144.855469 186.628906 144.824219 186.714844 144.75 186.625 L 144.558594 186.460938 C 144.527344 186.425781 144.519531 186.375 144.53125 186.332031 C 144.78125 185.503906 144.816406 185.304688 145.03125 184.46875 C 145.152344 184.035156 145.269531 183.605469 145.390625 183.179688 C 145.894531 181.402344 146.414062 179.652344 146.917969 177.964844 C 147.113281 177.308594 147.308594 176.644531 147.503906 175.980469 C 147.511719 175.949219 147.53125 175.921875 147.554688 175.90625 L 147.832031 175.691406 C 147.941406 175.601562 148.097656 175.710938 148.058594 175.847656 Z M 143.773438 186.363281 L 143.507812 186.027344 C 143.480469 185.992188 143.46875 185.945312 143.480469 185.898438 L 143.5625 185.617188 C 143.664062 185.242188 143.769531 184.871094 143.875 184.496094 C 143.933594 184.300781 143.792969 183.476562 142.992188 183.769531 C 142.941406 183.789062 142.867188 183.769531 142.832031 183.722656 L 142.183594 182.894531 C 142.15625 182.859375 142.144531 182.808594 142.160156 182.765625 C 142.199219 182.648438 142.320312 182.453125 142.566406 182.261719 C 142.8125 182.070312 143.023438 182 143.148438 181.988281 C 143.195312 181.984375 143.246094 182.003906 143.273438 182.042969 L 143.699219 182.585938 C 143.730469 182.625 143.78125 182.648438 143.828125 182.640625 L 143.9375 182.628906 C 144.144531 182.601562 144.304688 182.464844 144.480469 182.359375 C 144.511719 182.34375 144.535156 182.3125 144.546875 182.277344 C 144.675781 181.859375 144.800781 181.4375 144.925781 181.003906 L 145.296875 179.699219 C 145.535156 178.855469 145.78125 177.996094 146.03125 177.132812 C 146.039062 177.101562 146.054688 177.078125 146.078125 177.058594 L 146.5 176.730469 C 146.609375 176.644531 146.765625 176.75 146.726562 176.886719 C 146.632812 177.199219 146.539062 177.515625 146.449219 177.824219 C 145.945312 179.515625 145.421875 181.265625 144.921875 183.046875 C 144.800781 183.472656 144.679688 183.90625 144.558594 184.339844 C 144.390625 184.996094 144.214844 185.660156 144.027344 186.316406 C 143.996094 186.429688 143.847656 186.457031 143.773438 186.363281 Z M 142.734375 185.046875 C 142.703125 185.011719 142.695312 184.960938 142.707031 184.917969 C 142.75 184.777344 142.792969 184.636719 142.832031 184.496094 C 142.851562 184.4375 142.90625 184.394531 142.964844 184.394531 C 143.023438 184.390625 143.085938 184.386719 143.148438 184.371094 C 143.238281 184.351562 143.335938 184.324219 143.429688 184.28125 C 143.421875 184.308594 143.414062 184.335938 143.40625 184.363281 C 143.300781 184.734375 143.195312 185.109375 143.089844 185.488281 L 143.085938 185.496094 Z M 142.144531 184.300781 L 141.914062 184.011719 C 141.886719 183.976562 141.875 183.929688 141.890625 183.882812 C 141.921875 183.769531 142.070312 183.742188 142.140625 183.835938 L 142.398438 184.164062 C 142.40625 184.171875 142.410156 184.175781 142.414062 184.183594 C 142.410156 184.207031 142.402344 184.230469 142.394531 184.253906 C 142.363281 184.363281 142.214844 184.394531 142.144531 184.300781 Z M 141.199219 183.109375 C 141.171875 183.074219 141.164062 183.027344 141.175781 182.980469 C 141.433594 182.101562 141.679688 181.222656 141.921875 180.34375 C 141.933594 180.316406 141.949219 180.289062 141.972656 180.269531 L 142.242188 180.058594 C 142.355469 179.972656 142.511719 180.078125 142.472656 180.214844 C 142.320312 180.726562 142.167969 181.234375 142.015625 181.738281 C 141.992188 181.816406 141.96875 181.902344 141.945312 181.980469 C 141.9375 182.003906 141.925781 182.019531 141.914062 182.035156 C 141.796875 182.164062 141.703125 182.300781 141.636719 182.433594 C 141.539062 182.636719 141.511719 182.835938 141.554688 183 C 141.574219 183.085938 141.621094 183.160156 141.667969 183.234375 C 141.519531 183.34375 141.585938 183.296875 141.433594 183.40625 Z M 140.609375 182.359375 L 140.484375 182.207031 C 140.457031 182.167969 140.449219 182.121094 140.460938 182.078125 C 140.527344 181.832031 140.589844 181.585938 140.65625 181.339844 C 140.664062 181.308594 140.679688 181.28125 140.707031 181.261719 L 140.941406 181.078125 C 141.050781 180.992188 141.207031 181.097656 141.167969 181.230469 C 141.066406 181.589844 140.964844 181.949219 140.859375 182.308594 C 140.828125 182.421875 140.679688 182.453125 140.609375 182.359375 Z M 143.296875 179.234375 L 144.074219 178.625 L 144.039062 178.761719 C 143.796875 179.609375 143.546875 180.449219 143.296875 181.273438 C 143.277344 181.335938 143.226562 181.375 143.160156 181.375 C 143.097656 181.378906 143.03125 181.386719 142.960938 181.398438 C 142.925781 181.40625 142.890625 181.414062 142.855469 181.425781 C 142.746094 181.457031 142.640625 181.359375 142.675781 181.246094 C 142.867188 180.605469 143.058594 179.960938 143.246094 179.308594 C 143.253906 179.28125 143.273438 179.253906 143.296875 179.234375 Z M 144.765625 178.085938 L 145.035156 177.875 C 145.144531 177.789062 145.300781 177.894531 145.261719 178.03125 C 145.117188 178.542969 144.96875 179.058594 144.824219 179.566406 L 144.453125 180.871094 C 144.359375 181.195312 144.269531 181.511719 144.171875 181.828125 C 144.140625 181.941406 143.992188 181.96875 143.917969 181.875 L 143.710938 181.605469 C 143.710938 181.605469 143.710938 181.605469 143.707031 181.605469 C 143.980469 180.714844 144.25 179.8125 144.507812 178.894531 L 144.714844 178.164062 C 144.722656 178.132812 144.738281 178.105469 144.765625 178.085938 Z M 158.171875 181.753906 C 158.304688 181.648438 158.328125 181.457031 158.226562 181.324219 C 158.203125 181.296875 158.179688 181.273438 158.15625 181.257812 C 158.105469 181.222656 158.089844 181.160156 158.105469 181.101562 C 158.273438 180.539062 158.441406 179.980469 158.609375 179.421875 C 158.640625 179.3125 158.789062 179.285156 158.859375 179.375 L 159.132812 179.714844 C 159.160156 179.75 159.171875 179.796875 159.15625 179.84375 L 159.144531 179.886719 C 159.074219 180.144531 159.386719 180.335938 159.585938 180.15625 C 159.808594 179.953125 159.835938 179.617188 159.648438 179.382812 L 153.101562 171.175781 C 152.996094 171.042969 152.804688 171.023438 152.671875 171.125 L 139.488281 181.433594 C 139.425781 181.484375 139.382812 181.558594 139.375 181.640625 C 139.371094 181.675781 139.371094 181.714844 139.378906 181.75 C 139.390625 181.792969 139.410156 181.832031 139.4375 181.867188 L 143.410156 186.894531 C 143.664062 187.210938 144.066406 187.371094 144.46875 187.3125 L 144.480469 187.308594 C 144.917969 187.242188 145.277344 186.929688 145.398438 186.503906 C 146.441406 182.886719 147.582031 179.058594 148.851562 174.921875 C 148.859375 174.894531 148.875 174.871094 148.898438 174.855469 C 148.960938 174.804688 149.09375 174.703125 149.230469 174.59375 C 149.34375 174.507812 149.5 174.621094 149.453125 174.757812 C 149.4375 174.792969 149.425781 174.832031 149.414062 174.867188 C 148.988281 176.035156 148.550781 177.242188 148.269531 178.5 C 147.640625 181.339844 146.8125 184.121094 145.988281 186.824219 C 145.953125 186.929688 146.046875 187.03125 146.15625 187.007812 L 146.378906 186.960938 C 146.429688 186.949219 146.472656 186.910156 146.488281 186.863281 C 147.304688 184.183594 148.121094 181.425781 148.75 178.605469 C 149.023438 177.378906 149.453125 176.1875 149.871094 175.035156 C 150.023438 174.621094 150.171875 174.199219 150.316406 173.773438 C 150.324219 173.75 150.34375 173.726562 150.363281 173.707031 L 150.710938 173.4375 C 150.820312 173.351562 150.976562 173.457031 150.9375 173.59375 C 149.730469 177.566406 148.496094 181.769531 147.1875 186.382812 C 147.15625 186.417969 147.128906 186.445312 147.097656 186.480469 C 146.875 186.5625 146.796875 186.882812 147.082031 187.070312 C 147.113281 187.089844 147.15625 187.09375 147.191406 187.085938 C 151.230469 186.089844 154.925781 184.296875 158.171875 181.753906 " fill-opacity="1" fill-rule="nonzero"/></g><path fill="#000000" d="M 131.515625 178.058594 C 131.714844 177.726562 131.917969 177.390625 132.125 177.054688 L 132.234375 177.140625 Z M 131.679688 176.84375 C 131.375 177.339844 131.082031 177.835938 130.789062 178.332031 C 130.75 178.394531 130.667969 178.410156 130.605469 178.363281 L 130.515625 178.292969 C 130.46875 178.257812 130.457031 178.1875 130.488281 178.132812 C 130.777344 177.640625 131.070312 177.140625 131.375 176.644531 C 131.410156 176.578125 131.496094 176.5625 131.554688 176.609375 L 131.648438 176.683594 C 131.699219 176.722656 131.710938 176.789062 131.679688 176.84375 Z M 130.113281 177.800781 C 130.078125 177.867188 129.992188 177.882812 129.933594 177.835938 L 129.902344 177.816406 C 129.855469 177.777344 129.84375 177.707031 129.875 177.652344 C 129.933594 177.554688 129.992188 177.453125 130.054688 177.355469 L 130.597656 176.457031 C 130.65625 176.363281 130.714844 176.265625 130.773438 176.171875 C 130.808594 176.109375 130.894531 176.09375 130.953125 176.136719 L 131.058594 176.21875 L 131.054688 176.226562 C 130.734375 176.753906 130.421875 177.28125 130.113281 177.800781 Z M 130.296875 175.625 L 130.371094 175.679688 C 130.417969 175.71875 130.429688 175.789062 130.398438 175.84375 C 130.324219 175.964844 130.253906 176.082031 130.179688 176.203125 L 129.636719 177.101562 C 129.589844 177.175781 129.546875 177.25 129.503906 177.324219 C 129.464844 177.386719 129.378906 177.402344 129.320312 177.359375 L 129.257812 177.308594 C 129.207031 177.269531 129.195312 177.199219 129.226562 177.148438 C 129.527344 176.648438 129.824219 176.152344 130.117188 175.660156 C 130.152344 175.597656 130.238281 175.578125 130.296875 175.625 Z M 129.707031 175.164062 L 129.714844 175.167969 C 129.761719 175.207031 129.773438 175.273438 129.742188 175.328125 C 129.453125 175.820312 129.15625 176.316406 128.855469 176.816406 C 128.816406 176.882812 128.730469 176.898438 128.671875 176.851562 C 128.625 176.8125 128.609375 176.746094 128.640625 176.691406 C 128.933594 176.199219 129.226562 175.703125 129.523438 175.199219 C 129.5625 175.132812 129.648438 175.117188 129.707031 175.164062 Z M 129.0625 174.660156 L 129.121094 174.707031 C 129.167969 174.742188 129.183594 174.8125 129.152344 174.867188 C 128.855469 175.371094 128.558594 175.867188 128.269531 176.359375 C 128.230469 176.425781 128.144531 176.441406 128.085938 176.394531 L 127.972656 176.304688 C 127.925781 176.265625 127.910156 176.195312 127.945312 176.140625 C 128.25 175.65625 128.5625 175.167969 128.882812 174.6875 C 128.921875 174.628906 129.003906 174.613281 129.0625 174.660156 Z M 128.394531 174.136719 L 128.480469 174.203125 C 128.53125 174.242188 128.542969 174.316406 128.507812 174.367188 C 128.1875 174.847656 127.875 175.332031 127.570312 175.816406 C 127.53125 175.878906 127.449219 175.894531 127.390625 175.847656 L 127.351562 175.816406 C 127.300781 175.78125 127.289062 175.710938 127.320312 175.65625 C 127.621094 175.15625 127.917969 174.660156 128.210938 174.171875 C 128.25 174.105469 128.335938 174.089844 128.394531 174.136719 Z M 127.753906 173.636719 L 127.808594 173.679688 C 127.859375 173.71875 127.871094 173.785156 127.839844 173.839844 C 127.546875 174.328125 127.25 174.824219 126.949219 175.328125 C 126.910156 175.390625 126.824219 175.40625 126.765625 175.359375 L 126.695312 175.304688 C 126.644531 175.265625 126.632812 175.195312 126.664062 175.144531 C 126.96875 174.652344 127.269531 174.164062 127.570312 173.667969 C 127.609375 173.605469 127.695312 173.589844 127.753906 173.636719 Z M 127.089844 173.117188 L 127.167969 173.179688 C 127.21875 173.21875 127.230469 173.289062 127.199219 173.339844 C 126.898438 173.835938 126.59375 174.328125 126.292969 174.816406 C 126.253906 174.878906 126.167969 174.894531 126.109375 174.847656 L 126.046875 174.800781 C 126 174.761719 125.988281 174.691406 126.019531 174.636719 C 126.316406 174.140625 126.613281 173.644531 126.910156 173.152344 C 126.949219 173.085938 127.03125 173.070312 127.089844 173.117188 Z M 126.394531 172.574219 L 126.503906 172.660156 C 126.554688 172.699219 126.566406 172.769531 126.535156 172.820312 C 126.242188 173.316406 125.945312 173.8125 125.644531 174.308594 C 125.609375 174.371094 125.523438 174.386719 125.464844 174.34375 L 125.332031 174.238281 C 125.285156 174.199219 125.269531 174.132812 125.304688 174.078125 C 125.605469 173.589844 125.910156 173.097656 126.214844 172.605469 C 126.253906 172.542969 126.335938 172.527344 126.394531 172.574219 Z M 125.8125 172.117188 C 125.859375 172.15625 125.871094 172.226562 125.839844 172.28125 C 125.535156 172.773438 125.230469 173.265625 124.929688 173.75 C 124.890625 173.8125 124.808594 173.828125 124.75 173.785156 L 124.660156 173.714844 C 124.613281 173.675781 124.601562 173.609375 124.632812 173.554688 C 124.730469 173.390625 124.828125 173.226562 124.925781 173.066406 C 125.121094 172.734375 125.320312 172.402344 125.523438 172.066406 C 125.558594 172.003906 125.644531 171.988281 125.703125 172.03125 Z M 125.117188 171.578125 C 125.167969 171.613281 125.179688 171.683594 125.148438 171.738281 C 124.933594 172.097656 124.71875 172.457031 124.503906 172.816406 C 124.421875 172.949219 124.339844 173.085938 124.257812 173.222656 C 124.222656 173.289062 124.136719 173.304688 124.078125 173.257812 L 123.9375 173.148438 L 123.945312 173.132812 C 124.257812 172.609375 124.574219 172.089844 124.886719 171.570312 C 124.925781 171.507812 125.011719 171.492188 125.070312 171.535156 Z M 124.484375 171.078125 C 124.535156 171.117188 124.546875 171.1875 124.515625 171.242188 C 124.214844 171.734375 123.917969 172.226562 123.621094 172.722656 C 123.582031 172.789062 123.496094 172.804688 123.4375 172.757812 L 123.359375 172.695312 C 123.308594 172.65625 123.296875 172.585938 123.328125 172.535156 L 123.425781 172.371094 C 123.714844 171.941406 123.984375 171.503906 124.242188 171.066406 C 124.277344 171 124.363281 170.984375 124.421875 171.03125 Z M 123.835938 170.574219 C 123.886719 170.613281 123.898438 170.679688 123.867188 170.734375 C 123.597656 171.191406 123.316406 171.652344 123.015625 172.105469 L 122.953125 172.203125 C 122.917969 172.269531 122.832031 172.285156 122.773438 172.238281 L 122.695312 172.175781 C 122.644531 172.136719 122.632812 172.070312 122.664062 172.015625 C 122.949219 171.550781 123.230469 171.089844 123.507812 170.632812 C 123.527344 170.601562 123.546875 170.566406 123.566406 170.535156 C 123.605469 170.472656 123.6875 170.457031 123.746094 170.503906 Z M 123.140625 170.027344 L 123.164062 170.046875 C 123.175781 170.105469 123.179688 170.148438 123.191406 170.207031 C 122.894531 170.699219 122.59375 171.191406 122.292969 171.6875 C 122.253906 171.75 122.167969 171.765625 122.109375 171.71875 L 122.105469 171.714844 C 122.054688 171.675781 122.042969 171.605469 122.074219 171.554688 C 122.371094 171.054688 122.664062 170.558594 122.957031 170.0625 C 122.996094 170 123.082031 169.984375 123.140625 170.027344 Z M 122.421875 169.46875 L 122.554688 169.570312 C 122.605469 169.609375 122.617188 169.675781 122.585938 169.730469 C 122.292969 170.226562 121.996094 170.722656 121.699219 171.222656 C 121.664062 171.285156 121.578125 171.304688 121.519531 171.257812 L 121.378906 171.148438 C 121.332031 171.109375 121.316406 171.039062 121.347656 170.988281 C 121.652344 170.476562 121.945312 169.984375 122.242188 169.5 C 122.277344 169.4375 122.363281 169.421875 122.421875 169.46875 Z M 130.457031 180.269531 C 130.535156 180.261719 130.609375 180.21875 130.660156 180.152344 L 132.90625 177.277344 C 132.933594 177.242188 132.953125 177.203125 132.960938 177.164062 C 132.988281 177.046875 132.953125 176.921875 132.851562 176.847656 L 122.152344 168.476562 C 122.097656 168.4375 122.019531 168.445312 121.976562 168.5 L 119.617188 171.519531 C 119.570312 171.585938 119.546875 171.667969 119.554688 171.746094 C 119.566406 171.828125 119.605469 171.902344 119.671875 171.949219 L 130.230469 180.207031 C 130.292969 180.257812 130.375 180.28125 130.457031 180.269531 " fill-opacity="1" fill-rule="nonzero"/><g clip-path="url(#c54dd4ae59)"><path fill="#000000" d="M 119.484375 171.769531 L 119.492188 171.777344 C 119.574219 171.839844 119.585938 171.960938 119.519531 172.039062 C 119.480469 172.078125 119.445312 172.121094 119.410156 172.164062 C 119.257812 172.339844 118.984375 172.121094 119.128906 171.9375 L 119.230469 171.804688 C 119.292969 171.722656 119.40625 171.710938 119.484375 171.769531 Z M 124.277344 175.515625 L 124.503906 175.699219 C 124.621094 175.785156 124.628906 175.910156 124.554688 175.988281 C 122.578125 178.054688 120.570312 180.082031 118.601562 182.070312 C 118.292969 182.382812 117.984375 182.695312 117.671875 183.011719 C 117.59375 183.089844 117.46875 183.105469 117.375 183.046875 C 117.332031 183.023438 117.292969 182.996094 117.25 182.96875 C 117.117188 182.886719 117.097656 182.707031 117.203125 182.59375 C 117.316406 182.480469 117.429688 182.363281 117.542969 182.25 L 118.46875 181.292969 C 119.65625 180.035156 120.828125 178.824219 122.160156 177.484375 C 122.46875 177.167969 122.773438 176.847656 123.082031 176.53125 C 123.410156 176.1875 123.726562 175.859375 124.035156 175.535156 C 124.097656 175.46875 124.203125 175.460938 124.277344 175.515625 Z M 125.207031 176.246094 L 125.285156 176.304688 C 125.367188 176.371094 125.378906 176.496094 125.300781 176.574219 C 123.921875 178.007812 122.546875 179.4375 121.195312 180.847656 C 120.339844 181.742188 119.46875 182.644531 118.597656 183.550781 C 118.519531 183.632812 118.398438 183.648438 118.304688 183.597656 C 118.285156 183.585938 118.265625 183.574219 118.246094 183.5625 C 118.109375 183.484375 118.082031 183.292969 118.195312 183.179688 C 118.445312 182.925781 118.699219 182.671875 118.949219 182.417969 C 120.941406 180.40625 122.96875 178.355469 124.964844 176.265625 C 125.03125 176.195312 125.136719 176.1875 125.207031 176.246094 Z M 125.957031 176.832031 L 126.144531 176.980469 C 126.230469 177.046875 126.238281 177.171875 126.164062 177.25 L 123.328125 180.179688 C 122.578125 181.035156 121.78125 181.824219 121.007812 182.585938 C 120.523438 183.0625 120.03125 183.554688 119.546875 184.0625 C 119.472656 184.140625 119.355469 184.160156 119.261719 184.113281 C 119.242188 184.101562 119.21875 184.089844 119.199219 184.082031 C 119.054688 184.007812 119.023438 183.8125 119.136719 183.695312 C 119.945312 182.855469 120.753906 182.015625 121.550781 181.1875 C 122.921875 179.757812 124.316406 178.304688 125.714844 176.851562 C 125.78125 176.78125 125.886719 176.777344 125.957031 176.832031 Z M 126.820312 177.507812 L 126.992188 177.644531 C 127.078125 177.707031 127.085938 177.832031 127.011719 177.910156 C 126.769531 178.160156 126.53125 178.410156 126.292969 178.660156 L 125.347656 179.640625 C 125.050781 179.949219 124.753906 180.257812 124.460938 180.566406 C 123.152344 181.90625 121.855469 183.257812 120.589844 184.578125 C 120.519531 184.652344 120.410156 184.671875 120.3125 184.628906 C 120.269531 184.609375 120.226562 184.589844 120.183594 184.566406 C 120.035156 184.496094 119.996094 184.296875 120.113281 184.179688 C 120.527344 183.753906 120.941406 183.339844 121.351562 182.933594 C 122.128906 182.167969 122.9375 181.371094 123.6875 180.511719 L 126.578125 177.523438 C 126.644531 177.457031 126.746094 177.449219 126.820312 177.507812 Z M 127.667969 178.167969 L 127.832031 178.300781 C 127.917969 178.367188 127.925781 178.492188 127.851562 178.566406 C 126.796875 179.65625 125.738281 180.742188 124.703125 181.804688 C 123.671875 182.863281 122.628906 183.933594 121.582031 185.011719 C 121.511719 185.085938 121.40625 185.105469 121.3125 185.070312 C 121.300781 185.0625 121.285156 185.058594 121.273438 185.050781 C 121.113281 184.984375 121.070312 184.78125 121.191406 184.660156 C 122.378906 183.421875 123.589844 182.160156 124.8125 180.90625 C 125.109375 180.597656 125.40625 180.289062 125.703125 179.980469 L 126.644531 179 C 126.902344 178.730469 127.164062 178.460938 127.425781 178.1875 C 127.488281 178.121094 127.59375 178.113281 127.667969 178.167969 Z M 128.507812 178.828125 L 128.660156 178.945312 C 128.742188 179.011719 128.75 179.132812 128.679688 179.210938 C 127.871094 180.0625 127.066406 180.910156 126.273438 181.75 C 125.113281 182.976562 123.933594 184.222656 122.742188 185.46875 C 122.675781 185.539062 122.574219 185.5625 122.484375 185.527344 C 122.425781 185.507812 122.363281 185.484375 122.304688 185.460938 C 122.140625 185.398438 122.09375 185.191406 122.214844 185.066406 C 123.167969 184.082031 124.113281 183.109375 125.054688 182.148438 C 126.113281 181.0625 127.1875 179.953125 128.265625 178.84375 C 128.332031 178.777344 128.433594 178.769531 128.507812 178.828125 Z M 129.332031 179.472656 L 129.609375 179.6875 C 129.691406 179.753906 129.699219 179.878906 129.625 179.957031 C 127.652344 182.015625 125.679688 184.039062 123.753906 185.996094 C 123.722656 185.964844 123.683594 185.9375 123.636719 185.925781 C 123.59375 185.910156 123.550781 185.894531 123.503906 185.882812 C 123.335938 185.828125 123.28125 185.613281 123.40625 185.484375 C 124.492188 184.34375 125.570312 183.207031 126.628906 182.085938 C 127.441406 181.226562 128.261719 180.359375 129.089844 179.488281 C 129.152344 179.421875 129.257812 179.414062 129.332031 179.472656 Z M 130.28125 180.214844 L 130.40625 180.3125 C 130.488281 180.375 130.5 180.5 130.425781 180.578125 C 130.191406 180.828125 129.957031 181.078125 129.71875 181.328125 C 129.667969 181.382812 129.585938 181.402344 129.515625 181.367188 C 129.464844 181.34375 129.410156 181.324219 129.359375 181.304688 C 129.234375 181.265625 129.199219 181.105469 129.289062 181.011719 C 129.539062 180.753906 129.789062 180.492188 130.039062 180.230469 C 130.105469 180.164062 130.210938 180.15625 130.28125 180.214844 Z M 131.285156 181 C 131.371094 181.066406 131.378906 181.191406 131.304688 181.269531 C 131.066406 181.515625 130.828125 181.761719 130.589844 182.007812 C 130.515625 182.085938 130.390625 182.082031 130.324219 181.996094 C 130.277344 181.9375 130.226562 181.882812 130.167969 181.824219 C 130.097656 181.757812 130.09375 181.644531 130.164062 181.570312 C 130.386719 181.332031 130.613281 181.09375 130.835938 180.855469 C 130.929688 180.847656 130.984375 180.84375 131.078125 180.835938 Z M 119.25 170.925781 C 119.167969 170.933594 119.09375 170.976562 119.046875 171.039062 L 112.570312 179.441406 C 112.496094 179.539062 112.503906 179.679688 112.597656 179.765625 C 112.628906 179.796875 112.660156 179.824219 112.691406 179.855469 C 112.792969 179.953125 112.960938 179.9375 113.046875 179.824219 L 113.824219 178.820312 C 113.828125 178.8125 113.835938 178.804688 113.84375 178.796875 C 116.023438 176.753906 118.035156 174.507812 119.917969 172.324219 C 119.980469 172.253906 120.085938 172.242188 120.164062 172.300781 L 120.328125 172.429688 C 120.410156 172.492188 120.417969 172.613281 120.351562 172.691406 C 117.855469 175.546875 115.617188 177.839844 113.324219 179.882812 C 113.289062 179.917969 113.253906 179.953125 113.21875 179.988281 C 113.117188 180.085938 113.121094 180.25 113.226562 180.34375 L 113.230469 180.347656 C 113.324219 180.429688 113.46875 180.429688 113.558594 180.339844 C 113.59375 180.304688 113.625 180.273438 113.660156 180.238281 C 115.96875 178.183594 118.234375 175.863281 120.75 172.980469 C 120.8125 172.90625 120.921875 172.894531 121 172.953125 L 121.140625 173.066406 C 121.242188 173.144531 121.253906 173.269531 121.179688 173.347656 C 118.734375 176.003906 116.394531 178.425781 114.066406 180.710938 C 113.960938 180.8125 113.96875 180.980469 114.082031 181.074219 L 114.085938 181.074219 C 114.179688 181.152344 114.320312 181.148438 114.40625 181.0625 C 116.753906 178.753906 119.117188 176.3125 121.589844 173.628906 C 121.652344 173.558594 121.757812 173.550781 121.832031 173.605469 L 121.972656 173.714844 C 122.058594 173.78125 122.066406 173.90625 121.992188 173.984375 C 121.269531 174.742188 120.554688 175.511719 119.859375 176.261719 C 118.292969 177.953125 116.671875 179.703125 114.949219 181.296875 L 114.882812 181.363281 C 114.78125 181.46875 114.792969 181.636719 114.910156 181.726562 L 114.914062 181.730469 C 115.011719 181.804688 115.148438 181.792969 115.234375 181.707031 L 115.292969 181.648438 C 117.019531 180.046875 118.644531 178.292969 120.21875 176.59375 C 120.929688 175.828125 121.664062 175.035156 122.402344 174.261719 C 122.46875 174.195312 122.574219 174.1875 122.648438 174.242188 L 122.785156 174.351562 C 122.867188 174.414062 122.878906 174.539062 122.804688 174.617188 C 122.71875 174.707031 122.632812 174.800781 122.546875 174.890625 C 121.714844 175.738281 120.871094 176.632812 120.058594 177.496094 C 118.761719 178.867188 117.425781 180.289062 116.042969 181.613281 L 115.703125 181.964844 C 115.597656 182.070312 115.613281 182.246094 115.738281 182.332031 L 115.742188 182.335938 C 115.839844 182.402344 115.96875 182.390625 116.054688 182.304688 L 116.386719 181.964844 C 117.773438 180.632812 119.113281 179.210938 120.414062 177.832031 C 121.226562 176.96875 122.066406 176.078125 122.898438 175.230469 C 123.003906 175.121094 123.109375 175.007812 123.214844 174.894531 C 123.277344 174.828125 123.382812 174.820312 123.457031 174.878906 L 123.601562 174.992188 C 123.6875 175.054688 123.695312 175.179688 123.621094 175.257812 C 123.332031 175.5625 123.035156 175.871094 122.730469 176.191406 C 122.421875 176.507812 122.117188 176.828125 121.8125 177.140625 C 120.480469 178.484375 119.304688 179.695312 118.113281 180.957031 L 117.191406 181.90625 C 117.023438 182.078125 116.859375 182.246094 116.691406 182.417969 C 116.605469 182.4375 116.539062 182.453125 116.453125 182.46875 C 116.265625 182.410156 116.039062 182.542969 116.050781 182.816406 C 116.054688 182.886719 116.097656 182.953125 116.15625 182.992188 C 118.40625 184.496094 120.859375 185.679688 123.449219 186.507812 C 123.609375 186.558594 123.78125 186.46875 123.835938 186.308594 C 123.835938 186.308594 123.835938 186.304688 123.835938 186.304688 C 123.980469 186.351562 124.132812 186.3125 124.238281 186.203125 C 125.257812 185.164062 126.292969 184.109375 127.332031 183.039062 C 127.425781 182.941406 127.585938 182.976562 127.636719 183.105469 C 127.65625 183.160156 127.683594 183.21875 127.714844 183.273438 C 127.753906 183.339844 127.742188 183.425781 127.6875 183.480469 C 126.773438 184.449219 125.847656 185.414062 124.914062 186.378906 C 124.832031 186.464844 124.871094 186.605469 124.984375 186.632812 C 125.050781 186.652344 125.117188 186.671875 125.1875 186.6875 C 125.242188 186.703125 125.296875 186.683594 125.335938 186.644531 C 126.269531 185.679688 127.191406 184.714844 128.105469 183.75 C 128.144531 183.785156 128.1875 183.820312 128.230469 183.855469 C 128.285156 183.894531 128.335938 183.933594 128.390625 183.96875 C 128.488281 184.03125 128.5 184.167969 128.417969 184.253906 C 127.625 185.070312 126.839844 185.871094 126.070312 186.660156 C 125.984375 186.746094 126.027344 186.890625 126.144531 186.914062 C 126.214844 186.929688 126.285156 186.945312 126.355469 186.960938 C 126.40625 186.972656 126.460938 186.957031 126.496094 186.917969 C 127.519531 185.859375 128.875 184.425781 128.894531 184.394531 C 128.972656 184.285156 128.996094 184.171875 128.980469 184.058594 C 128.953125 183.96875 128.917969 183.882812 128.875 183.796875 C 128.785156 183.660156 128.507812 183.429688 128.5 183.421875 C 128.488281 183.417969 128.183594 183.15625 128.164062 182.953125 C 128.15625 182.90625 128.171875 182.859375 128.199219 182.820312 C 128.203125 182.785156 128.214844 182.75 128.238281 182.71875 L 128.863281 181.921875 C 128.902344 181.867188 128.96875 181.84375 129.035156 181.855469 C 129.160156 181.875 129.359375 181.949219 129.582031 182.125 C 129.808594 182.300781 130.058594 182.652344 130.097656 182.6875 C 130.605469 183.121094 131.378906 181.894531 131.742188 181.519531 C 131.792969 181.46875 131.875 181.460938 131.933594 181.507812 C 131.996094 181.554688 132.007812 181.644531 131.960938 181.707031 L 130.914062 183.105469 C 130.910156 183.109375 130.902344 183.117188 130.898438 183.121094 C 130.027344 184.019531 128.582031 185.613281 127.789062 186.492188 C 127.542969 186.765625 127.695312 187.203125 128.058594 187.265625 C 128.230469 187.292969 128.375 187.316406 128.410156 187.320312 C 128.464844 187.332031 128.523438 187.308594 128.554688 187.261719 L 132.71875 181.722656 C 132.742188 181.6875 132.761719 181.652344 132.769531 181.613281 C 132.796875 181.5 132.757812 181.375 132.660156 181.296875 L 119.476562 170.988281 C 119.410156 170.9375 119.332031 170.914062 119.25 170.925781 " fill-opacity="1" fill-rule="nonzero"/></g><path fill="#000000" d="M 124.398438 158.578125 C 124.273438 158.671875 123.875 159.300781 123.964844 160.023438 C 124.042969 160.625 124.851562 161.964844 125.683594 162.921875 L 125.757812 162.289062 C 125.769531 162.203125 125.8125 162.128906 125.882812 162.078125 C 125.953125 162.027344 126.039062 162.007812 126.125 162.027344 L 128.003906 162.414062 C 129.3125 162.628906 130.082031 162.4375 130.382812 161.816406 C 130.441406 161.691406 130.625 161.308594 130.132812 160.925781 C 130.109375 160.910156 130.097656 160.898438 130.089844 160.890625 C 129.996094 160.800781 129.96875 160.660156 130.023438 160.539062 C 130.082031 160.417969 130.207031 160.347656 130.335938 160.363281 C 130.355469 160.367188 131.984375 160.5625 132.679688 160.5625 C 132.824219 160.5625 132.871094 160.550781 132.878906 160.550781 C 133.710938 160.371094 134.148438 159.992188 134.179688 159.417969 C 134.191406 159.226562 134.15625 159.007812 134.082031 158.769531 C 134.054688 158.675781 134.070312 158.574219 134.125 158.496094 C 134.183594 158.417969 134.273438 158.371094 134.371094 158.371094 C 134.929688 158.367188 135.550781 157.820312 135.589844 156.945312 C 135.625 156.175781 135.511719 156.035156 135.234375 155.691406 C 135.191406 155.636719 135.144531 155.582031 135.097656 155.519531 C 135.007812 155.398438 135.011719 155.234375 135.113281 155.125 C 135.117188 155.117188 135.757812 154.398438 135.679688 153.542969 C 135.605469 152.734375 135.027344 151.9375 134.511719 151.449219 C 134.320312 151.484375 134.136719 151.5 133.953125 151.5 C 132.714844 151.5 131.878906 150.71875 131.390625 150.0625 C 131.210938 149.816406 131.136719 149.539062 131.183594 149.253906 C 131.242188 148.882812 131.507812 148.515625 131.925781 148.222656 L 132.140625 148.0625 C 129.398438 148.238281 127.925781 148.472656 127.710938 148.625 C 127.476562 148.839844 127.023438 149.515625 127.042969 149.976562 C 127.054688 150.15625 127.132812 150.234375 127.191406 150.277344 C 127.316406 150.371094 127.347656 150.546875 127.269531 150.679688 C 127.1875 150.816406 127.019531 150.867188 126.875 150.800781 C 126.734375 150.734375 126.542969 150.695312 126.335938 150.695312 C 125.882812 150.695312 125.304688 150.886719 125.050781 151.417969 C 124.773438 152 124.394531 152.792969 125.492188 154.070312 L 125.5625 154.121094 C 125.679688 154.203125 125.726562 154.355469 125.671875 154.488281 C 125.617188 154.621094 125.476562 154.695312 125.335938 154.671875 C 125.320312 154.671875 125.304688 154.667969 125.285156 154.667969 C 124.875 154.667969 124.109375 155.132812 123.988281 155.460938 C 123.984375 155.46875 123.980469 155.480469 123.972656 155.488281 C 123.953125 155.535156 123.425781 156.664062 124.46875 158.0625 C 124.550781 158.128906 124.589844 158.230469 124.578125 158.335938 C 124.5625 158.441406 124.496094 158.535156 124.398438 158.578125 Z M 125.90625 163.914062 C 125.828125 163.914062 125.75 163.886719 125.695312 163.828125 C 124.710938 162.878906 123.476562 161.042969 123.359375 160.101562 C 123.269531 159.390625 123.546875 158.648438 123.859375 158.261719 C 122.792969 156.695312 123.34375 155.390625 123.421875 155.226562 C 123.597656 154.78125 124.222656 154.34375 124.777344 154.15625 C 123.742188 152.738281 124.226562 151.722656 124.496094 151.15625 C 124.875 150.367188 125.695312 150.082031 126.335938 150.082031 C 126.371094 150.082031 126.40625 150.085938 126.441406 150.085938 C 126.4375 150.058594 126.433594 150.035156 126.433594 150.007812 C 126.398438 149.296875 126.984375 148.460938 127.300781 148.167969 C 127.660156 147.839844 129.617188 147.578125 133.121094 147.386719 C 133.257812 147.382812 133.378906 147.464844 133.425781 147.589844 C 133.472656 147.714844 133.429688 147.859375 133.320312 147.941406 L 132.285156 148.71875 C 132 148.917969 131.820312 149.148438 131.789062 149.351562 C 131.769531 149.472656 131.800781 149.585938 131.882812 149.699219 C 132.285156 150.242188 132.96875 150.890625 133.953125 150.890625 C 134.140625 150.890625 134.335938 150.867188 134.53125 150.820312 C 134.628906 150.796875 134.726562 150.824219 134.800781 150.886719 C 135.425781 151.433594 136.191406 152.441406 136.289062 153.488281 C 136.363281 154.304688 135.964844 155 135.730469 155.328125 C 136.058594 155.742188 136.242188 156.035156 136.203125 156.972656 C 136.160156 157.925781 135.542969 158.730469 134.753906 158.933594 C 134.789062 159.113281 134.800781 159.289062 134.789062 159.449219 C 134.742188 160.308594 134.109375 160.914062 133.007812 161.148438 C 132.929688 161.164062 132.824219 161.171875 132.679688 161.171875 C 132.253906 161.171875 131.535156 161.109375 130.992188 161.054688 C 131.121094 161.375 131.105469 161.726562 130.933594 162.082031 C 130.605469 162.765625 129.925781 163.109375 128.917969 163.109375 C 128.609375 163.109375 128.277344 163.082031 127.898438 163.019531 C 127.894531 163.015625 127.890625 163.015625 127.886719 163.015625 L 126.324219 162.691406 L 126.210938 163.644531 C 126.195312 163.761719 126.117188 163.859375 126.007812 163.898438 C 125.976562 163.910156 125.941406 163.914062 125.90625 163.914062 " fill-opacity="1" fill-rule="nonzero"/><path fill="#000000" d="M 135.339844 155.636719 C 134.535156 155.636719 133.753906 155.398438 133.082031 154.953125 L 126.835938 150.777344 L 127.175781 150.269531 L 133.421875 154.441406 C 133.992188 154.824219 134.65625 155.023438 135.339844 155.023438 L 135.339844 155.636719 " fill-opacity="1" fill-rule="nonzero"/><path fill="#000000" d="M 135.226562 150.574219 C 134.78125 150.785156 134.351562 150.890625 133.953125 150.890625 C 132.96875 150.890625 132.285156 150.242188 131.882812 149.699219 C 131.800781 149.585938 131.769531 149.472656 131.789062 149.351562 C 131.792969 149.328125 131.796875 149.304688 131.804688 149.277344 C 132.035156 149.339844 132.273438 149.539062 132.492188 149.722656 C 132.738281 149.929688 132.976562 150.128906 133.214844 150.128906 C 133.265625 150.128906 133.316406 150.121094 133.367188 150.101562 C 134.613281 149.605469 134.945312 149.082031 135.003906 148.730469 C 135.046875 148.460938 134.945312 148.203125 134.726562 148.015625 C 134.707031 148 134.683594 147.988281 134.660156 147.980469 L 133.679688 147.671875 L 135.308594 146.449219 C 135.558594 146.34375 135.878906 146.289062 136.234375 146.289062 C 136.507812 146.289062 136.785156 146.320312 137.042969 146.382812 L 140.769531 148.089844 C 139.074219 148.574219 137.769531 149.015625 135.226562 150.574219 Z M 132.285156 148.71875 L 133.316406 147.941406 L 134.515625 148.320312 C 134.589844 148.394531 134.667969 148.511719 134.640625 148.671875 C 134.613281 148.839844 134.417969 149.289062 133.234375 149.757812 C 133.148438 149.792969 132.894531 149.582031 132.726562 149.441406 C 132.515625 149.265625 132.273438 149.0625 132.003906 148.957031 C 132.082031 148.875 132.175781 148.792969 132.285156 148.71875 Z M 141.78125 147.878906 L 137.269531 145.8125 C 137.253906 145.804688 137.234375 145.800781 137.21875 145.796875 C 136.90625 145.714844 136.566406 145.675781 136.234375 145.675781 C 135.78125 145.675781 135.363281 145.753906 135.03125 145.902344 C 135.007812 145.910156 134.988281 145.921875 134.972656 145.9375 L 131.925781 148.222656 C 131.507812 148.515625 131.242188 148.882812 131.183594 149.253906 C 131.136719 149.539062 131.210938 149.816406 131.390625 150.0625 C 131.878906 150.71875 132.714844 151.503906 133.953125 151.503906 C 134.449219 151.503906 134.96875 151.375 135.503906 151.121094 C 135.511719 151.117188 135.523438 151.113281 135.53125 151.105469 C 138.261719 149.429688 139.523438 149.074219 141.4375 148.535156 L 141.734375 148.449219 C 141.859375 148.417969 141.949219 148.308594 141.957031 148.179688 C 141.96875 148.050781 141.894531 147.929688 141.78125 147.878906 " fill-opacity="1" fill-rule="nonzero"/><path fill="#000000" d="M 131.964844 157.921875 C 131.496094 158.140625 131.273438 159.109375 131.402344 159.570312 C 131.464844 159.785156 131.71875 159.859375 131.914062 159.929688 C 132.296875 160.070312 132.832031 160.183594 133.230469 160.050781 C 133.578125 159.933594 133.804688 159.527344 133.878906 159.1875 C 133.9375 158.921875 133.949219 158.511719 133.710938 158.328125 C 133.519531 158.175781 133.230469 158.082031 133 158 C 132.6875 157.886719 132.335938 157.800781 132.007812 157.902344 C 131.785156 157.972656 131.878906 158.328125 132.105469 158.257812 C 132.511719 158.132812 133 158.371094 133.355469 158.550781 C 133.402344 158.578125 133.476562 158.601562 133.519531 158.640625 C 133.535156 158.65625 133.546875 158.675781 133.523438 158.640625 C 133.480469 158.589844 133.546875 158.847656 133.542969 158.835938 C 133.566406 159.121094 133.429688 159.539062 133.15625 159.675781 C 132.878906 159.816406 132.441406 159.707031 132.15625 159.621094 C 132.050781 159.589844 131.949219 159.554688 131.851562 159.507812 C 131.820312 159.492188 131.777344 159.480469 131.75 159.457031 C 131.691406 159.40625 131.765625 159.519531 131.753906 159.445312 C 131.714844 159.117188 131.8125 158.394531 132.148438 158.238281 C 132.363281 158.136719 132.175781 157.820312 131.964844 157.921875 " fill-opacity="1" fill-rule="nonzero"/><path fill="#000000" d="M 128.839844 160.222656 C 128.335938 160.253906 128.09375 160.742188 128.046875 161.199219 C 127.996094 161.71875 128.265625 161.960938 128.753906 162.078125 C 129.191406 162.183594 129.695312 162.226562 129.90625 161.753906 C 130.054688 161.425781 130.074219 161.023438 130.066406 160.667969 C 130.0625 160.585938 130.011719 160.519531 129.929688 160.492188 C 129.582031 160.375 129.210938 160.238281 128.839844 160.222656 C 128.605469 160.210938 128.605469 160.582031 128.839844 160.589844 C 129.171875 160.605469 129.519531 160.742188 129.832031 160.847656 C 129.789062 160.789062 129.742188 160.726562 129.699219 160.667969 C 129.703125 160.867188 129.695312 161.070312 129.664062 161.269531 C 129.640625 161.398438 129.617188 161.609375 129.515625 161.707031 C 129.421875 161.800781 129.28125 161.78125 129.15625 161.773438 C 128.890625 161.753906 128.421875 161.703125 128.40625 161.371094 C 128.394531 161.097656 128.507812 160.613281 128.839844 160.589844 C 129.078125 160.574219 129.078125 160.207031 128.839844 160.222656 " fill-opacity="1" fill-rule="nonzero"/><path fill="#000000" d="M 125.386719 154.371094 L 130.511719 157.023438 L 134.375 158.675781 " fill-opacity="1" fill-rule="nonzero"/><path fill="#000000" d="M 134.253906 158.957031 L 130.390625 157.304688 C 130.386719 157.300781 130.378906 157.296875 130.371094 157.292969 L 125.246094 154.644531 L 125.527344 154.097656 L 130.644531 156.746094 L 134.496094 158.394531 L 134.253906 158.957031 " fill-opacity="1" fill-rule="nonzero"/><path fill="#000000" d="M 133.761719 153.265625 C 133.734375 153.265625 133.699219 153.269531 133.679688 153.285156 C 133.613281 153.339844 133.496094 153.46875 133.3125 153.761719 C 133.246094 153.867188 133.222656 153.996094 133.253906 154.121094 C 133.285156 154.25 133.363281 154.355469 133.472656 154.421875 C 134.371094 154.960938 134.652344 155.019531 134.726562 155.023438 C 134.910156 154.875 135.015625 154.675781 135.03125 154.425781 C 135.046875 154.15625 134.949219 153.9375 134.90625 153.894531 C 134.71875 153.710938 134.085938 153.265625 133.761719 153.265625 Z M 134.734375 155.394531 C 134.644531 155.394531 134.378906 155.394531 133.285156 154.734375 C 133.089844 154.617188 132.949219 154.429688 132.898438 154.207031 C 132.84375 153.984375 132.882812 153.757812 133 153.566406 C 133.167969 153.300781 133.316406 153.109375 133.445312 153.003906 C 133.527344 152.933594 133.636719 152.898438 133.761719 152.898438 C 134.253906 152.898438 134.996094 153.46875 135.164062 153.632812 C 135.292969 153.757812 135.417969 154.089844 135.394531 154.449219 C 135.378906 154.703125 135.285156 155.0625 134.925781 155.335938 C 134.875 155.371094 134.808594 155.394531 134.734375 155.394531 " fill-opacity="1" fill-rule="nonzero"/><path fill="#000000" d="M 133.726562 155.898438 C 133.664062 155.898438 133.617188 155.90625 133.59375 155.925781 C 133.527344 155.984375 133.40625 156.113281 133.226562 156.402344 C 133.113281 156.585938 133.015625 156.890625 133.0625 157.089844 C 133.078125 157.152344 133.109375 157.199219 133.152344 157.222656 C 133.597656 157.492188 134.214844 157.738281 134.441406 157.738281 C 134.449219 157.738281 134.453125 157.738281 134.457031 157.738281 C 134.804688 157.492188 134.910156 157.128906 134.941406 156.933594 C 134.988281 156.652344 134.933594 156.445312 134.902344 156.40625 C 134.753906 156.261719 134.097656 155.898438 133.726562 155.898438 Z M 134.441406 158.105469 C 134.109375 158.105469 133.417969 157.8125 132.960938 157.539062 C 132.832031 157.460938 132.746094 157.335938 132.707031 157.175781 C 132.628906 156.859375 132.757812 156.460938 132.914062 156.207031 C 133.082031 155.941406 133.230469 155.753906 133.359375 155.644531 C 133.449219 155.566406 133.574219 155.53125 133.726562 155.53125 C 134.226562 155.53125 134.96875 155.957031 135.164062 156.148438 C 135.3125 156.292969 135.339844 156.628906 135.320312 156.867188 C 135.277344 157.359375 135.03125 157.789062 134.648438 158.050781 C 134.59375 158.085938 134.527344 158.105469 134.441406 158.105469 " fill-opacity="1" fill-rule="nonzero"/><path fill="#000000" d="M 130.300781 160.667969 L 124.273438 158.296875 " fill-opacity="1" fill-rule="nonzero"/><path fill="#000000" d="M 130.191406 160.953125 L 124.160156 158.582031 L 124.386719 158.011719 L 130.414062 160.382812 L 130.191406 160.953125 " fill-opacity="1" fill-rule="nonzero"/><path fill="#000000" d="M 127.730469 150.8125 C 127.6875 150.460938 127.628906 150.113281 127.558594 149.769531 C 127.507812 149.539062 127.160156 149.65625 127.210938 149.886719 C 127.277344 150.199219 127.328125 150.515625 127.367188 150.835938 C 127.394531 151.070312 127.757812 151.046875 127.730469 150.8125 " fill-opacity="1" fill-rule="nonzero"/><path fill="#000000" d="M 128.269531 151.300781 C 128.203125 150.871094 128.136719 150.441406 128.0625 150.015625 C 128.019531 149.78125 127.65625 149.804688 127.695312 150.039062 C 127.769531 150.464844 127.839844 150.894531 127.902344 151.324219 C 127.933594 151.558594 128.300781 151.535156 128.269531 151.300781 " fill-opacity="1" fill-rule="nonzero"/><path fill="#000000" d="M 128.828125 151.515625 C 128.730469 151.148438 128.652344 150.777344 128.601562 150.398438 C 128.566406 150.164062 128.199219 150.1875 128.234375 150.421875 C 128.292969 150.832031 128.371094 151.234375 128.476562 151.632812 C 128.539062 151.859375 128.886719 151.742188 128.828125 151.515625 " fill-opacity="1" fill-rule="nonzero"/><path fill="#000000" d="M 129.300781 151.898438 C 129.214844 151.539062 129.144531 151.175781 129.089844 150.8125 C 129.050781 150.582031 128.6875 150.601562 128.722656 150.835938 C 128.785156 151.230469 128.863281 151.625 128.953125 152.015625 C 129.007812 152.246094 129.355469 152.125 129.300781 151.898438 " fill-opacity="1" fill-rule="nonzero"/><path fill="#000000" d="M 129.835938 152.296875 C 129.753906 151.929688 129.683594 151.566406 129.625 151.195312 C 129.585938 150.964844 129.21875 150.984375 129.257812 151.21875 C 129.320312 151.621094 129.398438 152.015625 129.488281 152.414062 C 129.542969 152.644531 129.890625 152.523438 129.835938 152.296875 " fill-opacity="1" fill-rule="nonzero"/><path fill="#000000" d="M 130.363281 152.617188 C 130.308594 152.257812 130.242188 151.898438 130.152344 151.546875 C 130.097656 151.316406 129.75 151.433594 129.804688 151.664062 C 129.886719 151.988281 129.949219 152.3125 130 152.640625 C 130.03125 152.875 130.398438 152.851562 130.363281 152.617188 " fill-opacity="1" fill-rule="nonzero"/><path fill="#000000" d="M 130.835938 152.832031 C 130.789062 152.566406 130.734375 152.296875 130.671875 152.035156 C 130.613281 151.804688 130.265625 151.921875 130.324219 152.152344 C 130.378906 152.382812 130.425781 152.621094 130.46875 152.855469 C 130.507812 153.089844 130.875 153.066406 130.835938 152.832031 " fill-opacity="1" fill-rule="nonzero"/><path fill="#000000" d="M 131.398438 153.152344 C 131.335938 152.894531 131.289062 152.636719 131.253906 152.375 C 131.222656 152.140625 130.855469 152.164062 130.886719 152.398438 C 130.925781 152.691406 130.980469 152.980469 131.050781 153.269531 C 131.105469 153.5 131.453125 153.382812 131.398438 153.152344 " fill-opacity="1" fill-rule="nonzero"/><path fill="#000000" d="M 132.027344 153.675781 C 131.976562 153.355469 131.902344 153.042969 131.800781 152.738281 C 131.722656 152.511719 131.375 152.628906 131.453125 152.855469 C 131.546875 153.128906 131.617188 153.410156 131.660156 153.699219 C 131.699219 153.929688 132.066406 153.910156 132.027344 153.675781 " fill-opacity="1" fill-rule="nonzero"/><path fill="#000000" d="M 132.585938 154.148438 C 132.535156 153.851562 132.476562 153.554688 132.398438 153.261719 C 132.339844 153.03125 131.992188 153.152344 132.050781 153.378906 C 132.121094 153.640625 132.175781 153.90625 132.21875 154.171875 C 132.253906 154.40625 132.621094 154.382812 132.585938 154.148438 " fill-opacity="1" fill-rule="nonzero"/><path fill="#000000" d="M 134.359375 151.324219 C 134.355469 151.578125 134.328125 151.824219 134.28125 152.074219 C 134.238281 152.304688 134.597656 152.375 134.640625 152.144531 C 134.695312 151.867188 134.722656 151.585938 134.726562 151.300781 C 134.730469 151.0625 134.363281 151.089844 134.359375 151.324219 " fill-opacity="1" fill-rule="nonzero"/><path fill="#000000" d="M 134.867188 151.691406 C 134.84375 152.011719 134.816406 152.335938 134.789062 152.65625 C 134.769531 152.890625 135.132812 152.960938 135.152344 152.726562 C 135.175781 152.40625 135.203125 152.082031 135.230469 151.761719 C 135.25 151.527344 134.886719 151.457031 134.867188 151.691406 " fill-opacity="1" fill-rule="nonzero"/><path fill="#000000" d="M 135.292969 152.351562 C 135.28125 152.648438 135.257812 152.941406 135.230469 153.238281 C 135.207031 153.472656 135.566406 153.542969 135.589844 153.308594 C 135.621094 152.980469 135.644531 152.65625 135.660156 152.328125 C 135.667969 152.089844 135.300781 152.117188 135.292969 152.351562 " fill-opacity="1" fill-rule="nonzero"/><path fill="#000000" d="M 125.925781 154.410156 C 125.804688 154.089844 125.707031 153.761719 125.640625 153.425781 C 125.59375 153.195312 125.246094 153.316406 125.292969 153.542969 C 125.359375 153.878906 125.457031 154.207031 125.578125 154.527344 C 125.664062 154.75 126.011719 154.632812 125.925781 154.410156 " fill-opacity="1" fill-rule="nonzero"/><path fill="#000000" d="M 126.683594 154.898438 C 126.578125 154.539062 126.488281 154.175781 126.40625 153.8125 C 126.355469 153.582031 126.007812 153.699219 126.058594 153.929688 C 126.140625 154.292969 126.230469 154.65625 126.335938 155.015625 C 126.402344 155.242188 126.75 155.125 126.683594 154.898438 " fill-opacity="1" fill-rule="nonzero"/><path fill="#000000" d="M 127.421875 155.234375 C 127.34375 154.933594 127.234375 154.625 127.1875 154.320312 C 127.152344 154.085938 126.789062 154.109375 126.824219 154.34375 C 126.871094 154.679688 126.988281 155.019531 127.074219 155.351562 C 127.132812 155.582031 127.480469 155.460938 127.421875 155.234375 " fill-opacity="1" fill-rule="nonzero"/><path fill="#000000" d="M 128.136719 155.589844 C 128.050781 155.273438 127.96875 154.957031 127.886719 154.640625 C 127.828125 154.410156 127.480469 154.53125 127.539062 154.757812 C 127.621094 155.074219 127.703125 155.390625 127.785156 155.707031 C 127.847656 155.933594 128.195312 155.816406 128.136719 155.589844 " fill-opacity="1" fill-rule="nonzero"/><path fill="#000000" d="M 128.828125 155.941406 C 128.714844 155.621094 128.613281 155.300781 128.527344 154.976562 C 128.464844 154.75 128.117188 154.867188 128.179688 155.09375 C 128.265625 155.417969 128.367188 155.738281 128.480469 156.054688 C 128.558594 156.277344 128.90625 156.164062 128.828125 155.941406 " fill-opacity="1" fill-rule="nonzero"/><path fill="#000000" d="M 129.785156 157.195312 C 129.703125 156.957031 129.613281 156.71875 129.507812 156.484375 C 129.5 156.460938 129.484375 156.441406 129.464844 156.425781 C 129.480469 156.390625 129.484375 156.351562 129.472656 156.304688 C 129.40625 156.066406 129.339844 155.828125 129.273438 155.589844 C 129.210938 155.363281 128.863281 155.480469 128.925781 155.707031 C 128.992188 155.945312 129.058594 156.183594 129.125 156.421875 C 129.128906 156.449219 129.140625 156.46875 129.152344 156.484375 C 129.140625 156.519531 129.140625 156.558594 129.160156 156.601562 C 129.265625 156.835938 129.355469 157.074219 129.4375 157.3125 C 129.511719 157.539062 129.859375 157.421875 129.785156 157.195312 " fill-opacity="1" fill-rule="nonzero"/><path fill="#000000" d="M 128.660156 159.933594 C 128.558594 159.703125 128.46875 159.472656 128.390625 159.234375 C 128.316406 159.007812 127.96875 159.128906 128.042969 159.351562 C 128.121094 159.589844 128.210938 159.820312 128.3125 160.050781 C 128.402344 160.269531 128.753906 160.152344 128.660156 159.933594 " fill-opacity="1" fill-rule="nonzero"/><path fill="#000000" d="M 129.355469 160.074219 C 129.199219 159.777344 129.070312 159.472656 128.957031 159.15625 C 128.875 158.933594 128.527344 159.050781 128.609375 159.273438 C 128.734375 159.621094 128.882812 159.953125 129.050781 160.28125 C 129.15625 160.492188 129.460938 160.285156 129.355469 160.074219 " fill-opacity="1" fill-rule="nonzero"/><path fill="#000000" d="M 130.109375 160.457031 C 129.941406 160.105469 129.769531 159.753906 129.601562 159.402344 C 129.5 159.191406 129.148438 159.308594 129.253906 159.519531 C 129.421875 159.871094 129.59375 160.222656 129.761719 160.574219 C 129.863281 160.785156 130.210938 160.667969 130.109375 160.457031 " fill-opacity="1" fill-rule="nonzero"/><path fill="#000000" d="M 130.722656 160.519531 L 130.398438 159.707031 C 130.308594 159.488281 129.960938 159.605469 130.046875 159.824219 L 130.375 160.636719 C 130.460938 160.855469 130.808594 160.738281 130.722656 160.519531 " fill-opacity="1" fill-rule="nonzero"/><path fill="#000000" d="M 131.335938 160.59375 C 131.253906 160.398438 131.167969 160.207031 131.085938 160.015625 C 130.992188 159.800781 130.640625 159.914062 130.738281 160.132812 C 130.820312 160.324219 130.902344 160.515625 130.988281 160.710938 C 131.082031 160.925781 131.429688 160.808594 131.335938 160.59375 " fill-opacity="1" fill-rule="nonzero"/><path fill="#000000" d="M 124.398438 159.984375 C 124.230469 159.742188 124.054688 159.503906 123.875 159.265625 C 123.730469 159.078125 123.425781 159.285156 123.570312 159.472656 C 123.75 159.707031 123.925781 159.945312 124.09375 160.1875 C 124.230469 160.378906 124.535156 160.175781 124.398438 159.984375 " fill-opacity="1" fill-rule="nonzero"/><path fill="#000000" d="M 124.808594 160.816406 C 124.523438 160.617188 124.242188 160.40625 123.96875 160.191406 C 123.785156 160.042969 123.542969 160.320312 123.730469 160.46875 C 124.003906 160.6875 124.285156 160.894531 124.570312 161.097656 C 124.761719 161.230469 125.003906 160.953125 124.808594 160.816406 " fill-opacity="1" fill-rule="nonzero"/><path fill="#000000" d="M 125.199219 161.421875 C 124.917969 161.332031 124.636719 161.242188 124.355469 161.152344 C 124.132812 161.078125 124.0625 161.441406 124.285156 161.511719 C 124.566406 161.601562 124.847656 161.691406 125.128906 161.78125 C 125.351562 161.855469 125.421875 161.492188 125.199219 161.421875 " fill-opacity="1" fill-rule="nonzero"/><path fill="#000000" d="M 125.429688 162.019531 C 125.257812 161.984375 125.101562 161.933594 124.949219 161.859375 C 124.734375 161.753906 124.578125 162.085938 124.789062 162.1875 C 124.96875 162.277344 125.160156 162.339844 125.359375 162.378906 C 125.589844 162.421875 125.660156 162.0625 125.429688 162.019531 " fill-opacity="1" fill-rule="nonzero"/><path fill="#000000" d="M 130.28125 157.316406 C 130.230469 157.164062 130.1875 157.003906 130.160156 156.84375 C 130.140625 156.746094 130.070312 156.667969 129.964844 156.671875 C 129.875 156.679688 129.773438 156.769531 129.792969 156.867188 C 129.828125 157.058594 129.871094 157.25 129.933594 157.433594 C 130.003906 157.660156 130.351562 157.542969 130.28125 157.316406 " fill-opacity="1" fill-rule="nonzero"/><path fill="#000000" d="M 130.714844 157.457031 C 130.691406 157.308594 130.652344 157.167969 130.597656 157.027344 C 130.5625 156.933594 130.464844 156.878906 130.367188 156.910156 C 130.277344 156.941406 130.214844 157.050781 130.25 157.144531 C 130.292969 157.253906 130.328125 157.367188 130.351562 157.480469 C 130.367188 157.578125 130.4375 157.660156 130.542969 157.652344 C 130.636719 157.644531 130.734375 157.554688 130.714844 157.457031 " fill-opacity="1" fill-rule="nonzero"/><path fill="#000000" d="M 133.585938 150.464844 C 133.503906 150.613281 133.421875 150.761719 133.339844 150.914062 C 133.226562 151.121094 133.558594 151.277344 133.671875 151.070312 C 133.753906 150.921875 133.835938 150.773438 133.914062 150.621094 C 134.027344 150.414062 133.699219 150.253906 133.585938 150.464844 " fill-opacity="1" fill-rule="nonzero"/><path fill="#000000" d="M 134.457031 150.382812 C 134.390625 150.320312 134.257812 150.320312 134.199219 150.402344 C 134.089844 150.5625 133.992188 150.730469 133.914062 150.914062 C 133.816406 151.128906 134.148438 151.289062 134.242188 151.070312 C 134.308594 150.921875 134.386719 150.777344 134.480469 150.640625 C 134.535156 150.558594 134.539062 150.449219 134.457031 150.382812 " fill-opacity="1" fill-rule="nonzero"/><path fill="#000000" d="M 135.113281 150.007812 C 135.03125 149.96875 134.902344 150 134.867188 150.09375 C 134.804688 150.28125 134.71875 150.464844 134.609375 150.628906 C 134.554688 150.710938 134.546875 150.816406 134.628906 150.886719 C 134.699219 150.945312 134.835938 150.949219 134.890625 150.867188 C 135.015625 150.675781 135.125 150.472656 135.199219 150.253906 C 135.230469 150.160156 135.210938 150.054688 135.113281 150.007812 " fill-opacity="1" fill-rule="nonzero"/><path fill="#000000" d="M 135.582031 149.789062 L 135.277344 150.503906 C 135.183594 150.722656 135.515625 150.882812 135.609375 150.664062 C 135.710938 150.425781 135.8125 150.1875 135.914062 149.949219 C 136.007812 149.730469 135.675781 149.570312 135.582031 149.789062 " fill-opacity="1" fill-rule="nonzero"/><path fill="#000000" d="M 136.308594 149.425781 C 136.269531 149.59375 136.21875 149.753906 136.152344 149.910156 C 136.066406 150.128906 136.394531 150.289062 136.484375 150.070312 C 136.5625 149.882812 136.621094 149.691406 136.667969 149.496094 C 136.722656 149.265625 136.359375 149.195312 136.308594 149.425781 " fill-opacity="1" fill-rule="nonzero"/><path fill="#000000" d="M 137.132812 148.957031 C 137.027344 148.933594 136.949219 149.003906 136.917969 149.101562 C 136.855469 149.289062 136.796875 149.480469 136.734375 149.671875 C 136.703125 149.765625 136.789062 149.871094 136.878906 149.886719 C 136.984375 149.90625 137.0625 149.835938 137.09375 149.742188 C 137.15625 149.550781 137.21875 149.359375 137.28125 149.171875 C 137.308594 149.074219 137.222656 148.972656 137.132812 148.957031 " fill-opacity="1" fill-rule="nonzero"/><path fill="#000000" d="M 137.6875 148.808594 C 137.601562 149.007812 137.511719 149.207031 137.417969 149.398438 C 137.3125 149.613281 137.644531 149.773438 137.746094 149.558594 C 137.84375 149.367188 137.933594 149.167969 138.015625 148.96875 C 138.109375 148.753906 137.78125 148.59375 137.6875 148.808594 " fill-opacity="1" fill-rule="nonzero"/><path fill="#000000" d="M 147.511719 161.722656 L 145.222656 164.5625 C 145.214844 164.574219 145.207031 164.585938 145.195312 164.601562 C 145.078125 164.804688 144.917969 165.035156 144.742188 165.269531 L 144.742188 164.882812 C 144.742188 164.644531 144.375 164.671875 144.375 164.90625 L 144.375 165.703125 C 144.375 165.707031 144.378906 165.714844 144.378906 165.71875 C 144.300781 165.804688 144.226562 165.890625 144.152344 165.972656 L 144.152344 165.3125 C 144.152344 165.074219 143.785156 165.097656 143.785156 165.335938 L 143.785156 166.332031 C 143.765625 166.347656 143.746094 166.367188 143.726562 166.382812 L 143.722656 166.386719 C 143.636719 166.460938 143.5 166.394531 143.5 166.28125 L 143.5 165.964844 C 143.5 165.726562 143.132812 165.753906 143.132812 165.988281 L 143.132812 166.8125 C 143.132812 166.855469 143.113281 166.894531 143.082031 166.921875 C 143.054688 166.945312 143.023438 166.96875 142.996094 166.992188 C 142.90625 167.070312 142.765625 167.003906 142.765625 166.882812 L 142.765625 166.476562 C 142.765625 166.238281 142.398438 166.261719 142.398438 166.5 L 142.398438 167.417969 C 142.398438 167.460938 142.378906 167.503906 142.347656 167.527344 C 142.3125 167.558594 142.277344 167.585938 142.242188 167.617188 C 142.148438 167.691406 142.011719 167.625 142.011719 167.507812 L 142.011719 167.105469 C 142.011719 166.871094 141.644531 166.894531 141.644531 167.132812 L 141.644531 168.011719 C 141.644531 168.070312 141.617188 168.128906 141.570312 168.164062 L 141.550781 168.179688 C 141.425781 168.285156 141.234375 168.195312 141.234375 168.03125 L 141.234375 167.292969 C 141.234375 167.054688 140.867188 167.078125 140.867188 167.316406 L 140.867188 168.738281 C 140.859375 168.746094 140.851562 168.753906 140.84375 168.757812 C 140.84375 168.761719 140.839844 168.761719 140.839844 168.761719 C 140.679688 168.890625 140.441406 168.773438 140.441406 168.566406 L 140.441406 167.558594 C 140.441406 167.320312 140.074219 167.34375 140.074219 167.582031 L 140.074219 169.234375 C 140.074219 169.253906 140.078125 169.273438 140.082031 169.289062 C 140.054688 169.308594 140.027344 169.324219 140 169.34375 C 139.882812 169.414062 139.738281 169.328125 139.738281 169.195312 L 139.738281 168.40625 C 139.738281 168.167969 139.371094 168.191406 139.371094 168.429688 L 139.371094 169.632812 C 139.371094 169.65625 139.375 169.675781 139.382812 169.695312 C 139.339844 169.714844 139.300781 169.738281 139.261719 169.757812 C 139.148438 169.816406 139.011719 169.734375 139.011719 169.605469 L 139.011719 168.761719 C 139.011719 168.523438 138.644531 168.550781 138.644531 168.785156 L 138.644531 169.988281 C 138.644531 170.007812 138.648438 170.019531 138.652344 170.035156 C 138.613281 170.050781 138.574219 170.066406 138.535156 170.082031 C 138.421875 170.132812 138.296875 170.050781 138.296875 169.925781 L 138.296875 169.128906 C 138.296875 168.890625 137.933594 168.917969 137.933594 169.152344 L 137.933594 170.296875 C 137.933594 170.3125 137.933594 170.324219 137.9375 170.339844 C 137.902344 170.355469 137.867188 170.367188 137.832031 170.382812 C 137.71875 170.433594 137.59375 170.347656 137.59375 170.226562 L 137.59375 169.640625 C 137.59375 169.402344 137.226562 169.425781 137.226562 169.664062 L 137.226562 170.5625 C 137.226562 170.589844 137.234375 170.613281 137.242188 170.636719 C 137.191406 170.65625 137.140625 170.679688 137.089844 170.703125 C 136.976562 170.75 136.851562 170.667969 136.851562 170.546875 L 136.851562 169.945312 C 136.851562 169.707031 136.484375 169.734375 136.484375 169.96875 L 136.484375 171.007812 C 136.484375 171.015625 136.484375 171.023438 136.484375 171.027344 C 136.429688 171.0625 136.371094 171.101562 136.316406 171.140625 C 136.203125 171.214844 136.054688 171.136719 136.054688 171.003906 L 136.054688 170.3125 C 136.054688 170.074219 135.6875 170.101562 135.6875 170.335938 L 135.6875 171.535156 C 135.6875 171.585938 135.664062 171.632812 135.628906 171.664062 C 135.578125 171.707031 135.527344 171.753906 135.476562 171.796875 C 135.367188 171.894531 135.199219 171.820312 135.199219 171.675781 L 135.199219 170.109375 C 135.199219 169.871094 134.832031 169.898438 134.832031 170.132812 L 134.832031 172.417969 C 134.832031 172.4375 134.832031 172.453125 134.835938 172.464844 C 134.722656 172.59375 134.601562 172.734375 134.46875 172.882812 C 134.367188 172.996094 134.179688 172.925781 134.179688 172.769531 L 134.179688 170.089844 C 134.179688 169.851562 133.8125 169.875 133.8125 170.113281 L 133.8125 173.5625 C 133.8125 173.601562 133.796875 173.640625 133.769531 173.671875 C 133.65625 173.800781 133.535156 173.9375 133.410156 174.078125 C 133.308594 174.191406 133.117188 174.121094 133.117188 173.96875 L 133.117188 170.800781 C 133.117188 170.566406 132.75 170.589844 132.75 170.824219 L 132.75 174.753906 C 132.75 174.796875 132.738281 174.835938 132.710938 174.867188 C 132.605469 174.984375 132.496094 175.101562 132.390625 175.226562 C 132.289062 175.339844 132.097656 175.269531 132.097656 175.117188 L 132.097656 171.578125 C 132.097656 171.339844 131.730469 171.367188 131.730469 171.601562 L 131.730469 175.34375 C 131.730469 175.484375 131.570312 175.5625 131.460938 175.476562 L 131.179688 175.253906 C 131.140625 175.222656 131.117188 175.175781 131.117188 175.125 L 131.117188 171.660156 C 131.117188 171.421875 130.753906 171.449219 130.753906 171.683594 L 130.753906 174.566406 C 130.753906 174.707031 130.589844 174.785156 130.480469 174.699219 L 130.121094 174.410156 C 130.082031 174.378906 130.058594 174.332031 130.058594 174.28125 L 130.058594 171.3125 C 130.058594 171.074219 129.691406 171.101562 129.691406 171.335938 L 129.691406 173.722656 C 129.691406 173.863281 129.53125 173.941406 129.421875 173.851562 L 129.222656 173.695312 C 129.183594 173.664062 129.160156 173.617188 129.160156 173.566406 L 129.160156 170.882812 C 129.160156 170.648438 128.792969 170.671875 128.792969 170.90625 L 128.792969 173.007812 C 128.792969 173.148438 128.632812 173.226562 128.523438 173.140625 L 128.285156 172.949219 C 128.246094 172.917969 128.222656 172.871094 128.222656 172.820312 L 128.222656 170.925781 C 128.222656 170.6875 127.855469 170.714844 127.855469 170.949219 L 127.855469 172.261719 C 127.855469 172.402344 127.695312 172.480469 127.585938 172.394531 L 127.460938 172.292969 C 127.421875 172.261719 127.398438 172.214844 127.398438 172.164062 L 127.398438 170.363281 C 127.398438 170.125 127.03125 170.152344 127.03125 170.386719 L 127.03125 171.605469 C 127.03125 171.746094 126.871094 171.824219 126.761719 171.738281 L 126.542969 171.5625 C 126.503906 171.53125 126.480469 171.484375 126.480469 171.433594 L 126.480469 170.363281 C 126.480469 170.128906 126.113281 170.152344 126.113281 170.386719 L 126.113281 170.875 C 126.113281 171.015625 125.953125 171.09375 125.84375 171.007812 L 125.632812 170.839844 C 125.59375 170.808594 125.570312 170.761719 125.570312 170.710938 L 125.570312 170.0625 C 125.570312 169.828125 125.203125 169.851562 125.203125 170.085938 L 125.203125 170.152344 C 125.203125 170.292969 125.042969 170.371094 124.933594 170.285156 L 123.863281 169.433594 C 125.367188 167.195312 126.15625 165.25 126.210938 163.636719 L 126.324219 162.691406 L 127.886719 163.015625 C 127.890625 163.015625 127.894531 163.015625 127.898438 163.019531 C 128.277344 163.082031 128.609375 163.109375 128.917969 163.109375 C 129.925781 163.109375 130.605469 162.765625 130.933594 162.082031 C 131.105469 161.726562 131.121094 161.375 130.992188 161.054688 C 131.535156 161.109375 132.253906 161.171875 132.679688 161.171875 C 132.824219 161.171875 132.929688 161.164062 133.007812 161.148438 C 134.109375 160.914062 134.742188 160.308594 134.789062 159.449219 C 134.800781 159.289062 134.789062 159.113281 134.753906 158.933594 C 135.542969 158.730469 136.160156 157.925781 136.203125 156.972656 C 136.242188 156.035156 136.058594 155.742188 135.730469 155.328125 C 135.964844 155 136.363281 154.304688 136.289062 153.488281 C 136.179688 152.320312 135.296875 151.320312 134.804688 150.890625 L 136.148438 150.539062 C 136.164062 150.53125 136.175781 150.527344 136.191406 150.523438 C 137.320312 150.027344 138.742188 149.390625 139.222656 149.101562 C 139.578125 149.015625 141.71875 148.492188 142.859375 148.113281 C 143.390625 147.933594 143.828125 147.84375 144.152344 147.84375 C 144.582031 147.84375 144.777344 147.992188 144.957031 148.234375 C 145.117188 148.453125 145.652344 149.261719 145.703125 150.347656 C 145.710938 150.511719 145.835938 150.644531 145.996094 150.648438 C 146.34375 150.660156 146.828125 150.953125 147.078125 151.488281 C 147.25 151.855469 147.695312 153.4375 147.117188 154.078125 C 147.042969 154.160156 147.015625 154.277344 147.054688 154.382812 C 147.089844 154.488281 147.179688 154.566406 147.292969 154.585938 C 147.296875 154.585938 147.921875 154.699219 148.082031 155.261719 C 148.574219 157.007812 147.792969 157.824219 147.761719 157.855469 C 147.691406 157.925781 147.660156 158.027344 147.675781 158.125 C 147.691406 158.226562 147.757812 158.308594 147.847656 158.351562 C 148.003906 158.429688 148.097656 158.519531 148.140625 158.636719 C 148.144531 158.652344 148.628906 160.171875 147.511719 161.722656 Z M 148.71875 158.4375 C 148.65625 158.261719 148.558594 158.117188 148.417969 157.996094 C 148.699219 157.550781 149.09375 156.589844 148.667969 155.09375 C 148.515625 154.554688 148.125 154.265625 147.816406 154.121094 C 148.359375 152.992188 147.640625 151.25 147.632812 151.230469 C 147.359375 150.648438 146.835938 150.203125 146.296875 150.074219 C 146.179688 148.976562 145.671875 148.179688 145.449219 147.871094 C 145.230469 147.574219 144.886719 147.230469 144.152344 147.230469 C 143.757812 147.230469 143.269531 147.328125 142.664062 147.53125 C 142.15625 147.703125 141.425781 147.90625 140.753906 148.082031 L 140.769531 148.089844 C 139.074219 148.574219 137.769531 149.015625 135.226562 150.574219 C 134.78125 150.785156 134.351562 150.890625 133.953125 150.890625 C 133.925781 150.890625 133.898438 150.886719 133.875 150.886719 C 133.894531 150.925781 133.917969 150.960938 133.953125 150.988281 C 134.148438 151.140625 134.261719 151.234375 134.261719 151.234375 C 134.265625 151.238281 134.269531 151.242188 134.273438 151.242188 C 134.691406 151.558594 135.585938 152.535156 135.679688 153.542969 C 135.757812 154.398438 135.117188 155.117188 135.113281 155.125 C 135.011719 155.234375 135.007812 155.398438 135.097656 155.519531 C 135.144531 155.582031 135.191406 155.636719 135.234375 155.691406 C 135.511719 156.035156 135.625 156.175781 135.589844 156.945312 C 135.550781 157.820312 134.929688 158.367188 134.371094 158.371094 C 134.273438 158.371094 134.183594 158.417969 134.125 158.496094 C 134.070312 158.574219 134.054688 158.675781 134.082031 158.769531 C 134.15625 159.007812 134.191406 159.226562 134.179688 159.417969 C 134.148438 159.992188 133.710938 160.371094 132.878906 160.550781 C 132.871094 160.550781 132.824219 160.5625 132.679688 160.5625 C 131.984375 160.5625 130.355469 160.367188 130.335938 160.363281 C 130.207031 160.347656 130.082031 160.417969 130.023438 160.539062 C 129.96875 160.660156 129.996094 160.800781 130.089844 160.890625 C 130.097656 160.898438 130.109375 160.910156 130.132812 160.925781 C 130.625 161.308594 130.441406 161.691406 130.382812 161.816406 C 130.082031 162.4375 129.3125 162.628906 128.003906 162.414062 L 126.125 162.027344 C 126.039062 162.007812 125.953125 162.027344 125.882812 162.078125 C 125.8125 162.128906 125.769531 162.203125 125.757812 162.289062 L 125.605469 163.554688 C 125.601562 163.570312 125.601562 163.582031 125.601562 163.597656 C 125.550781 165.152344 124.746094 167.074219 123.199219 169.320312 C 123.109375 169.453125 123.132812 169.632812 123.261719 169.734375 L 131.71875 176.464844 C 131.777344 176.507812 131.84375 176.53125 131.910156 176.53125 C 131.996094 176.53125 132.078125 176.496094 132.136719 176.429688 C 133.667969 174.710938 134.808594 173.425781 135.523438 172.613281 C 135.96875 172.109375 136.777344 171.503906 137.332031 171.265625 C 137.875 171.03125 138.527344 170.75 139.074219 170.519531 C 139.742188 170.238281 140.6875 169.671875 141.230469 169.234375 C 142.074219 168.546875 143.277344 167.558594 144.121094 166.851562 C 144.636719 166.417969 145.332031 165.578125 145.714844 164.929688 L 147.992188 162.101562 C 147.996094 162.097656 148 162.09375 148 162.085938 C 149.304688 160.28125 148.746094 158.519531 148.71875 158.4375 " fill-opacity="1" fill-rule="nonzero"/><path fill="#000000" d="M 146.105469 171.238281 C 145.796875 171.480469 145.417969 171.609375 145.023438 171.609375 L 143.527344 171.609375 C 143.292969 171.609375 143.316406 171.976562 143.550781 171.976562 L 144.726562 171.976562 C 144.871094 171.976562 144.929688 172.15625 144.820312 172.246094 C 144.667969 172.363281 144.480469 172.425781 144.289062 172.425781 L 141.246094 172.425781 C 141.007812 172.425781 141.03125 172.792969 141.269531 172.792969 L 143.683594 172.792969 C 143.824219 172.792969 143.886719 172.972656 143.773438 173.0625 L 143.703125 173.117188 C 143.5625 173.226562 143.390625 173.285156 143.214844 173.285156 L 138.894531 173.285156 C 138.84375 173.285156 138.796875 173.261719 138.761719 173.222656 C 138.605469 173.035156 138.449219 172.859375 138.3125 172.71875 C 138.308594 172.714844 138.304688 172.707031 138.300781 172.707031 L 138.253906 172.664062 C 138.140625 172.558594 138.214844 172.367188 138.371094 172.367188 L 140.289062 172.367188 C 140.527344 172.367188 140.5 172 140.265625 172 L 137.601562 172 C 137.558594 172 137.519531 171.984375 137.488281 171.953125 L 137.128906 171.621094 C 137.039062 171.539062 137.0625 171.394531 137.167969 171.34375 C 137.226562 171.3125 137.28125 171.285156 137.332031 171.265625 C 137.363281 171.25 137.398438 171.234375 137.433594 171.21875 C 137.441406 171.222656 137.445312 171.222656 137.453125 171.222656 L 140.65625 171.222656 C 140.894531 171.222656 140.867188 170.855469 140.632812 170.855469 L 139.128906 170.855469 C 138.941406 170.855469 138.890625 170.597656 139.0625 170.527344 L 139.074219 170.519531 C 139.742188 170.238281 140.6875 169.671875 141.230469 169.234375 C 142.074219 168.546875 143.277344 167.558594 144.121094 166.851562 C 144.636719 166.417969 145.332031 165.578125 145.714844 164.929688 L 145.992188 164.582031 C 145.957031 165 145.992188 165.25 146.097656 165.40625 L 148.34375 168.9375 C 148.476562 169.144531 148.429688 169.421875 148.234375 169.574219 Z M 142.207031 174.082031 L 139.519531 174.082031 C 139.464844 174.082031 139.414062 174.054688 139.382812 174.011719 C 139.363281 173.984375 139.339844 173.953125 139.320312 173.925781 C 139.234375 173.8125 139.316406 173.652344 139.457031 173.652344 L 142.585938 173.652344 C 142.726562 173.652344 142.789062 173.832031 142.679688 173.917969 C 142.542969 174.023438 142.378906 174.082031 142.207031 174.082031 Z M 140.464844 175.648438 L 140.28125 175.367188 L 140.558594 175.367188 C 140.648438 175.367188 140.683594 175.476562 140.617188 175.53125 Z M 140.832031 175 L 140.132812 175 C 140.078125 175 140.023438 174.96875 139.992188 174.921875 L 139.855469 174.714844 C 139.78125 174.597656 139.863281 174.449219 140 174.449219 L 141.570312 174.449219 C 141.710938 174.449219 141.773438 174.625 141.660156 174.714844 C 141.425781 174.898438 141.132812 175 140.832031 175 Z M 149.242188 169.210938 L 146.613281 165.078125 C 146.582031 165.011719 146.535156 164.734375 146.765625 163.578125 C 146.789062 163.46875 146.761719 163.355469 146.683594 163.28125 C 146.546875 163.152344 146.339844 163.175781 146.230469 163.308594 L 145.222656 164.5625 C 145.214844 164.574219 145.207031 164.585938 145.195312 164.601562 C 144.855469 165.1875 144.195312 165.988281 143.726562 166.382812 C 142.886719 167.089844 141.6875 168.074219 140.84375 168.757812 C 140.347656 169.160156 139.449219 169.699219 138.835938 169.957031 C 138.289062 170.1875 137.632812 170.464844 137.089844 170.703125 C 136.851562 170.804688 136.574219 170.964844 136.28125 171.164062 C 136.203125 171.214844 136.15625 171.300781 136.148438 171.394531 C 136.140625 171.484375 136.179688 171.578125 136.246094 171.640625 L 137.878906 173.148438 C 138.269531 173.554688 138.828125 174.257812 139.132812 174.726562 L 140.132812 176.261719 C 140.179688 176.335938 140.253906 176.382812 140.339844 176.398438 C 140.355469 176.402344 140.375 176.402344 140.390625 176.402344 C 140.457031 176.402344 140.523438 176.378906 140.578125 176.335938 L 149.175781 169.617188 C 149.296875 169.519531 149.328125 169.34375 149.242188 169.210938 " fill-opacity="1" fill-rule="nonzero"/><g fill="#000000" fill-opacity="1"><g transform="translate(166.555263, 179.849871)"><g><path d="M 0.890625 -25.941406 L 0.890625 -25.480469 C 2.492188 -25.480469 3.699219 -25.054688 4.554688 -23.628906 L 4.554688 -2.382812 C 4.554688 -0.5 3.738281 -0.460938 2.027344 -0.460938 L 2.027344 0 L 7.542969 0 L 7.542969 -0.460938 C 5.871094 -0.460938 5.019531 -0.5 5.019531 -2.382812 L 5.019531 -22.988281 L 21.496094 0 L 21.957031 0 L 21.921875 -23.738281 C 21.992188 -25.445312 22.8125 -25.480469 24.449219 -25.480469 L 24.449219 -25.941406 L 18.96875 -25.941406 L 18.96875 -25.480469 C 20.640625 -25.480469 21.460938 -25.445312 21.460938 -23.558594 L 21.496094 -6.726562 L 7.722656 -25.941406 Z M 0.890625 -25.941406 "/></g></g></g><g fill="#000000" fill-opacity="1"><g transform="translate(191.88685, 179.849871)"><g><path d="M 10.460938 0.425781 C 16.085938 0.425781 18.078125 -3.664062 18.183594 -7.792969 L 17.722656 -7.792969 C 17.722656 -5.980469 16.761719 -1.53125 11.851562 -1.53125 C 7.1875 -1.53125 4.980469 -5.125 4.980469 -10.105469 C 4.980469 -10.425781 4.980469 -10.746094 5.019531 -11.066406 L 17.722656 -11.066406 C 17.722656 -14.839844 15.195312 -17.972656 10.890625 -17.972656 C 4.945312 -17.972656 1.421875 -13.382812 1.421875 -8.683594 C 1.421875 -3.417969 4.484375 0.425781 10.460938 0.425781 Z M 5.089844 -11.53125 C 5.550781 -14.980469 7.6875 -17.261719 10.535156 -17.261719 C 14.269531 -17.261719 14.734375 -14.128906 14.734375 -11.53125 Z M 5.089844 -11.53125 "/></g></g></g><g fill="#000000" fill-opacity="1"><g transform="translate(210.9567, 179.849871)"><g><path d="M 0.355469 -0.460938 L 0.355469 0 L 5.265625 0 L 5.265625 -0.460938 C 4.019531 -0.460938 3.523438 -0.890625 4.058594 -1.816406 L 8.222656 -7.472656 L 11.316406 -1.921875 C 11.851562 -0.855469 11.246094 -0.460938 9.75 -0.460938 L 9.75 0 L 18.113281 0 L 18.113281 -0.460938 C 16.335938 -0.460938 15.621094 -0.855469 15.019531 -1.921875 L 10.320312 -10.285156 L 14.699219 -16.261719 C 15.230469 -17.046875 16.191406 -17.082031 17.4375 -17.082031 L 17.4375 -17.542969 L 12.777344 -17.542969 L 12.777344 -17.082031 C 13.914062 -17.082031 14.625 -16.832031 14.164062 -16.191406 L 10.070312 -10.710938 L 7.1875 -15.90625 C 6.726562 -16.867188 7.367188 -17.082031 8.613281 -17.082031 L 8.613281 -17.542969 L 0.960938 -17.542969 L 0.960938 -17.082031 C 2.277344 -17.082031 2.953125 -16.867188 3.523438 -15.871094 L 7.972656 -7.902344 L 3.558594 -1.957031 C 2.882812 -0.890625 1.636719 -0.460938 0.355469 -0.460938 Z M 0.355469 -0.460938 "/></g></g></g><g fill="#000000" fill-opacity="1"><g transform="translate(229.421719, 179.849871)"><g><path d="M 0.710938 -17.542969 L 0.710938 -17.082031 C 2.382812 -17.082031 3.238281 -16.796875 3.238281 -15.125 L 3.238281 -4.234375 C 3.238281 -0.320312 5.621094 0.425781 8.683594 0.425781 C 11.992188 0.425781 13.308594 -0.925781 14.269531 -2.3125 L 14.269531 0 L 20.78125 0 L 20.78125 -0.460938 C 18.753906 -0.460938 17.828125 -0.78125 17.828125 -3.167969 L 17.828125 -17.542969 L 11.742188 -17.542969 L 11.742188 -17.082031 C 13.664062 -17.082031 14.269531 -16.796875 14.269531 -15.160156 L 14.269531 -3.417969 C 13.59375 -1.921875 12.277344 -0.5 10.035156 -0.5 C 7.402344 -0.5 6.796875 -2.136719 6.796875 -4.304688 L 6.796875 -17.542969 Z M 0.710938 -17.542969 "/></g></g></g><g fill="#000000" fill-opacity="1"><g transform="translate(250.555087, 179.849871)"><g><path d="M 1.886719 0 C 1.886719 -0.460938 2.101562 -0.78125 2.492188 -0.855469 C 3.914062 -1.140625 4.660156 0.425781 8.078125 0.425781 C 11.671875 0.425781 14.09375 -1.707031 14.128906 -4.660156 C 14.128906 -11.386719 4.660156 -9.574219 4.734375 -14.804688 C 4.734375 -16.300781 5.800781 -17.296875 7.402344 -17.296875 C 10.425781 -17.296875 12.207031 -14.769531 12.207031 -11.742188 L 12.703125 -11.742188 L 12.667969 -17.542969 L 12.207031 -17.542969 C 12.207031 -17.082031 12.027344 -16.65625 11.53125 -16.65625 C 10.425781 -16.65625 9.359375 -17.972656 7.046875 -17.972656 C 3.699219 -17.972656 1.496094 -16.015625 1.496094 -12.917969 C 1.53125 -6.582031 10.890625 -8.71875 10.890625 -3.167969 C 10.890625 -1.496094 9.714844 -0.285156 7.296875 -0.285156 C 5.125 -0.285156 1.886719 -1.851562 1.886719 -7.367188 L 1.421875 -7.367188 L 1.421875 0 Z M 1.886719 0 "/></g></g></g></svg>